<?xml version="1.0" encoding="utf-8"?>
<svg viewBox="0 0 4200 1800" xmlns="http://www.w3.org/2000/svg">
  <defs>
    <clipPath clipPathUnits="userSpaceOnUse" id="clipPath392">
      <path d="M 20365.2,0 H 31500 V 13500 H 20365.2 Z" id="path390"/>
    </clipPath>
    <clipPath clipPathUnits="userSpaceOnUse" id="clipPath444">
      <path d="m 18099.9,8634.09 -173.2,1766.41 c -6.3,56.4 -60.4,94.7 -115.7,81.9 l -2273.2,-526.75 c -48.8,-11.31 -80.8,-58.09 -73.8,-107.68 l 263.5,-1844.82 c 8.7,-60.61 70.9,-97.95 128.4,-77.11 l 2182,608.21 c 41.2,14.94 66.9,56.22 62,99.84" id="path442"/>
    </clipPath>
    <clipPath clipPathUnits="userSpaceOnUse" id="clipPath480">
      <path d="m 16347.4,5710.98 -173.2,1766.38 c -6.3,56.42 -60.4,94.7 -115.7,81.88 l -2273.2,-526.71 c -48.8,-11.31 -80.9,-58.08 -73.8,-107.67 L 13975,5080.04 c 8.7,-60.61 70.9,-97.95 128.4,-77.11 l 2182,608.21 c 41.2,14.93 66.9,56.22 62,99.84" id="path478"/>
    </clipPath>
  </defs>
  <g id="g10" transform="matrix(1.333333, 0, 0, -1.333333, 0, 1800)">
    <g id="g12" transform="scale(0.1)">
      <path d="m 13.332,-4.39844 h 31500 V 13495.602 h -31500 z" style="fill:#949fd8;fill-opacity:1;fill-rule:nonzero;stroke:none" id="path14"/>
      <path d="M 25680.4,13495.6 C 22725.6,12536.6 19977.9,10934.5 17715.8,8804.2 14768.6,6028.8 12560.6,2357.6 9003.29,425.199 8712.54,267.301 8409.13,122 8097.58,0 h -59.92 c -0.62,-1.5 -1.23,-3 -1.85,-4.39844 h 923.77 C 11030.6,855.801 12981,2007.1 14728.6,3412.7 c 2502,2012.42 4604.1,4539.3 7350.8,6202.37 1466.1,887.73 3082.1,1506.13 4730.1,1977.13 1539.1,439.9 3114,753.4 4703.8,939.3 v 964.1 h -5832.9" style="fill:#a6b4e2;fill-opacity:1;fill-rule:nonzero;stroke:none" id="path16"/>
      <path d="M 31500,9260 C 30922.5,8929 30360.8,8570.75 29818.8,8183.6 28296.5,7096.37 26937.8,5790.46 25392.3,4736.63 23792.1,3645.57 22016.5,2841.5 20236.4,2078.3 18520.4,1342.7 16785.8,638.5 15029.3,0 H 31500 v 9260" style="fill:#7d90d1;fill-opacity:1;fill-rule:nonzero;stroke:none" id="path18"/>
      <path d="m 17715.8,8804.2 c 2265.5,2133.6 5018.2,3737.3 7978.2,4695.8 h -6796.5 c -2072.8,-1005.6 -3836.2,-2724.9 -4579,-4896.62 -329,-961.82 -455.1,-1986.18 -816.4,-2936.34 C 12982,4299.17 11991.3,3145.6 10832.4,2252 9673.42,1358.4 8347.15,707.102 7000.96,133.199 6895.7,88.3008 6789.74,43.9023 6683.17,0 h 1414.41 c 311.55,122 614.96,267.301 905.71,425.199 C 12560.6,2357.6 14768.6,6028.8 17715.8,8804.2" style="fill:#c8d6f0;fill-opacity:1;fill-rule:nonzero;stroke:none" id="path20"/>
      <path d="m 10832.4,2252 c 1158.9,893.6 2149.6,2047.17 2669.7,3415.04 361.3,950.16 487.4,1974.52 816.4,2936.34 742.8,2171.72 2506.2,3891.02 4579,4896.62 H 0 V 0 H 6683.17 C 6789.74,43.9023 6895.7,88.3008 7000.96,133.199 8347.15,707.102 9673.42,1358.4 10832.4,2252" style="fill:#ffffff;fill-opacity:1;fill-rule:nonzero;stroke:none" id="path22"/>
      <path d="m 25156.6,6582.89 h -146.8 v 4053.51 h 146.8 V 6582.89" style="fill:#1c1b1a;fill-opacity:1;fill-rule:nonzero;stroke:none" id="path28"/>
      <path d="m 25096.5,6582.89 h -146.8 v 4053.51 h 146.8 V 6582.89" style="fill:#333232;fill-opacity:1;fill-rule:nonzero;stroke:none" id="path30"/>
      <path d="m 25465.9,6582.89 h -146.8 v 4053.51 h 146.8 V 6582.89" style="fill:#1c1b1a;fill-opacity:1;fill-rule:nonzero;stroke:none" id="path32"/>
      <path d="M 25405.8,6582.89 H 25259 v 4053.51 h 146.8 V 6582.89" style="fill:#333232;fill-opacity:1;fill-rule:nonzero;stroke:none" id="path34"/>
      <path d="m 24788.3,10530 294.9,-66.9 493,186.9 -216.2,660 h -276.8 l -294.9,-780" style="fill:#333232;fill-opacity:1;fill-rule:nonzero;stroke:none" id="path36"/>
      <path d="m 25576.2,10650 -216.2,660 h -50 l -259,-839.6 32.2,-7.3 493,186.9" style="fill:#1c1b1a;fill-opacity:1;fill-rule:nonzero;stroke:none" id="path38"/>
      <path d="m 25260,10661 c 0,-38.1 -17.4,-69 -38.9,-69 -21.5,0 -38.9,30.9 -38.9,69 0,38.1 17.4,68.9 38.9,68.9 21.5,0 38.9,-30.8 38.9,-68.9" style="fill:#4e4f51;fill-opacity:1;fill-rule:nonzero;stroke:none" id="path40"/>
      <path d="m 25362.5,11096.4 c 0,-38.1 -17.5,-69 -38.9,-69 -21.5,0 -38.9,30.9 -38.9,69 0,38.1 17.4,69 38.9,69 21.4,0 38.9,-30.9 38.9,-69" style="fill:#4e4f51;fill-opacity:1;fill-rule:nonzero;stroke:none" id="path42"/>
      <path d="m 25509.8,10729.9 c 0,-38 -17.4,-68.9 -38.9,-68.9 -21.4,0 -38.8,30.9 -38.8,68.9 0,38.1 17.4,69 38.8,69 21.5,0 38.9,-30.9 38.9,-69" style="fill:#4e4f51;fill-opacity:1;fill-rule:nonzero;stroke:none" id="path44"/>
      <path d="m 24956.6,10803.3 94.4,-50.2 -3004.5,452.4 v 146.8 l 2910.1,-549" style="fill:#1c1b1a;fill-opacity:1;fill-rule:nonzero;stroke:none" id="path46"/>
      <path d="m 25051,10753.1 v -146.8 l -3004.5,539.1 v 146.8 l 3004.5,-539.1" style="fill:#333232;fill-opacity:1;fill-rule:nonzero;stroke:none" id="path48"/>
      <path d="m 25035.5,11146.2 94.5,-50.1 -3006.4,452.4 v 146.8 l 2911.9,-549.1" style="fill:#1c1b1a;fill-opacity:1;fill-rule:nonzero;stroke:none" id="path50"/>
      <path d="m 25130,11096.1 v -146.8 l -3006.4,539.1 v 146.8 l 3006.4,-539.1" style="fill:#333232;fill-opacity:1;fill-rule:nonzero;stroke:none" id="path52"/>
      <path d="m 21588.3,11010 294.9,-66.9 493,186.9 -216.2,660 h -276.8 l -294.9,-780" style="fill:#333232;fill-opacity:1;fill-rule:nonzero;stroke:none" id="path54"/>
      <path d="M 22461.2,10970.4 22160,11790 h -50 l -259,-839.6 32.2,-7.3 578,27.3" style="fill:#1c1b1a;fill-opacity:1;fill-rule:nonzero;stroke:none" id="path56"/>
      <path d="m 22060,11141 c 0,-38.1 -17.4,-69 -38.9,-69 -21.5,0 -38.9,30.9 -38.9,69 0,38.1 17.4,68.9 38.9,68.9 21.5,0 38.9,-30.8 38.9,-68.9" style="fill:#4e4f51;fill-opacity:1;fill-rule:nonzero;stroke:none" id="path58"/>
      <path d="m 22162.5,11576.4 c 0,-38.1 -17.5,-69 -38.9,-69 -21.5,0 -38.9,30.9 -38.9,69 0,38.1 17.4,69 38.9,69 21.4,0 38.9,-30.9 38.9,-69" style="fill:#4e4f51;fill-opacity:1;fill-rule:nonzero;stroke:none" id="path60"/>
      <path d="m 22309.8,11209.9 c 0,-38 -17.4,-68.9 -38.9,-68.9 -21.4,0 -38.8,30.9 -38.8,68.9 0,38.1 17.4,69 38.8,69 21.5,0 38.9,-30.9 38.9,-69" style="fill:#4e4f51;fill-opacity:1;fill-rule:nonzero;stroke:none" id="path62"/>
      <path d="m 21898.4,11491.9 c -5.1,9.8 -13.6,17.6 -23.9,21.7 l -644.9,254.1 c -58,22.9 -125.6,6.6 -163.1,-43.1 -23.5,-31.1 -36.7,-75.9 -19,-139.7 12.8,-46.2 48.7,-82.5 94.5,-96.8 l 663.6,-206.9 c 5.4,-1.7 11.1,-2.3 16.8,-1.9 38.1,2.6 173.1,25 76,212.6" style="fill:#1c1b1a;fill-opacity:1;fill-rule:nonzero;stroke:none" id="path64"/>
      <path d="m 20894,11827.5 c -1053.9,306.2 -1688.6,-783.4 -1854.7,-1115.7 -28.1,-56.2 -50.8,-205.9 0.9,-241.7 1184.4,-820.19 2204,-659.13 2593.7,-549.29 104.9,29.56 179.3,122.09 185.3,230.89 22.7,407.5 -17.5,1412 -925.2,1675.8" style="fill:#1c1b1a;fill-opacity:1;fill-rule:nonzero;stroke:none" id="path66"/>
      <path d="m 19452.9,10847.4 c 158.5,-17.7 318.6,-21.6 477.8,-11.6 83.5,411.9 250.6,763.5 554.9,1044.4 -13.6,-0.6 -27.2,-1.3 -40.6,-2.3 -424.3,-233 -775.9,-597.2 -992.1,-1030.5" style="fill:#4e4f51;fill-opacity:1;fill-rule:nonzero;stroke:none" id="path68"/>
      <path d="m 21648.5,10100.9 c -28.1,-149.46 -593.9,-168.44 -1263.8,-42.4 -669.8,126.1 -1190,349.4 -1161.9,498.9 28.1,149.5 594,168.4 1263.8,42.4 669.8,-126.1 1190,-349.4 1161.9,-498.9" style="fill:#b0b0ae;fill-opacity:1;fill-rule:nonzero;stroke:none" id="path70"/>
      <path d="m 19322.2,10639.6 c 156.2,-134.4 583.3,-289.2 1099.2,-386.3 515.9,-97.1 970.1,-108.1 1164.4,-39.7 -156.2,134.3 -583.3,289.1 -1099.2,386.2 -515.9,97.1 -970.1,108.1 -1164.4,39.8" style="fill:#ffffff;fill-opacity:1;fill-rule:nonzero;stroke:none" id="path72"/>
      <path d="m 14676.7,-46.0977 h -456.9 V 3300.4 h 456.9 V -46.0977" style="fill:#282d2c;fill-opacity:1;fill-rule:nonzero;stroke:none" id="path74"/>
      <path d="m 14905.1,-46.0977 h -456.8 V 3300.4 h 456.8 V -46.0977" style="fill:#151a2b;fill-opacity:1;fill-rule:nonzero;stroke:none" id="path76"/>
      <path d="m 20252.6,-46.0977 h -456.8 V 3300.4 h 456.8 V -46.0977" style="fill:#282d2c;fill-opacity:1;fill-rule:nonzero;stroke:none" id="path78"/>
      <path d="m 20481,-46.0977 h -456.8 V 3300.4 H 20481 V -46.0977" style="fill:#151a2b;fill-opacity:1;fill-rule:nonzero;stroke:none" id="path80"/>
      <path d="m 28037.9,660 h -456.8 v 4940.83 h 456.8 V 660" style="fill:#282d2c;fill-opacity:1;fill-rule:nonzero;stroke:none" id="path82"/>
      <path d="m 28266.3,660 h -456.8 v 4940.83 h 456.8 V 660" style="fill:#151a2b;fill-opacity:1;fill-rule:nonzero;stroke:none" id="path84"/>
      <path d="M 24092.8,1088.8 H 23636 v 4940.79 h 456.8 V 1088.8" style="fill:#282d2c;fill-opacity:1;fill-rule:nonzero;stroke:none" id="path86"/>
      <path d="m 24321.2,1088.8 h -456.8 v 4940.79 h 456.8 V 1088.8" style="fill:#151a2b;fill-opacity:1;fill-rule:nonzero;stroke:none" id="path88"/>
      <path d="m 14106.3,3391.5 -4.6,-1.7 4.8,-1.4 z" style="fill:#c46158;fill-opacity:1;fill-rule:nonzero;stroke:none" id="path90"/>
      <path d="m 25470.9,4045.87 2857.6,1501.61 7.4,194.15 -7.4,-194.15 -2857.6,-1501.61" style="fill:#c46158;fill-opacity:1;fill-rule:nonzero;stroke:none" id="path92"/>
      <path d="m 20023.3,1704 -1904.2,542.1 -4009.6,1095.2 -3,47.1 -4.8,1.4 37.8,-586.3 5893.3,-1615.2 -9.5,515.7" style="fill:#282d2c;fill-opacity:1;fill-rule:nonzero;stroke:none" id="path94"/>
      <path d="m 28350.5,6129.94 -51.3,-27.29 -0.7,-17.39 L 24715.9,4198.1 20023.3,1704 l 9.5,-515.7 5438.1,2857.57 2857.6,1501.61 7.4,194.15 14.6,388.31" style="fill:#151a2b;fill-opacity:1;fill-rule:nonzero;stroke:none" id="path96"/>
      <path d="M 24587.2,5519.27 C 23832,5133.76 23081,4739.97 22334.5,4337.96 21584.7,3934.2 20839.3,3522.17 20098.6,3102 c -346.4,-196.6 -691.9,-395.1 -1036.3,-595.2 l 384.3,-109.4 c 235,168.5 475.9,329.2 723.1,478.7 152.4,92.2 312,177.8 484.9,224.4 164.1,44.2 333.4,41.5 501.9,42.6 166.3,1.1 344.1,4.7 493.5,87.3 156.1,86.4 220.7,244.9 315.3,386.17 91.2,136.18 220.4,218.48 365,289.97 171.7,84.91 340.9,174.33 510.5,263.49 748.6,393.69 1497.2,787.39 2245.8,1181.08 719.9,378.63 1435.4,768.06 2165.6,1126.79 192.5,94.58 386.8,186.28 583.1,273.37 l -560.1,96.41 c -136.7,-65.39 -273.4,-130.96 -409.9,-196.89 -763.5,-368.81 -1522.9,-746.01 -2278.1,-1131.52" style="fill:#c46158;fill-opacity:1;fill-rule:nonzero;stroke:none" id="path98"/>
      <path d="m 22439.5,6089.12 c -710.8,-331.01 -1418.4,-669 -2127.1,-1004.71 -711.7,-337.16 -1424.6,-672.06 -2142.8,-995.2 -615.5,-276.92 -1235.1,-545.01 -1860.5,-798.61 l 945,-269 c 487.2,247.9 974.5,495.9 1461.7,743.86 677.6,344.8 1355.1,689.61 2032.7,1034.42 673.6,342.8 1347,685.93 2020.8,1028.33 654.5,332.56 1310.1,663.01 1972.7,979.07 247.9,118.25 496.8,234.43 746.9,347.93 l -465.8,80.2 c -143.6,-59.55 -287,-119.81 -430,-180.75 -723.8,-308.39 -1440.4,-633.46 -2153.6,-965.54" style="fill:#c46158;fill-opacity:1;fill-rule:nonzero;stroke:none" id="path100"/>
      <path d="m 21170,6233.05 c -350.3,-175.35 -701.9,-348.72 -1062.2,-502.77 -358.3,-153.16 -725.6,-283.06 -1093,-412.28 -712.4,-250.58 -1411.6,-526.98 -2087.8,-864.48 -537.1,-268.03 -1058.5,-566.92 -1561.4,-894.34 l 361.5,-102.88 c 555,208.12 1033.5,585.3 1570.9,832.63 148.7,68.4 301.9,127.5 460.1,169.78 196.9,52.65 399.4,79.61 598.6,121.5 364.1,76.54 694.5,234.38 1015,419.42 311.5,179.87 613.5,378.01 940.8,529.04 361.4,166.79 748.7,266.91 1113.5,425.08 365.7,158.53 710.1,361.53 1063.5,544.8 354.7,183.96 714.8,357.56 1079.7,520.53 259.5,115.91 521.4,226.34 785.4,331.41 l -594.4,102.35 c -160.7,-69.77 -321,-140.31 -480.8,-211.89 -711.5,-318.69 -1412.3,-658.94 -2109.4,-1007.9" style="fill:#c46158;fill-opacity:1;fill-rule:nonzero;stroke:none" id="path102"/>
      <path d="m 14652.7,3868.21 c 221.5,85.88 432.3,199.9 626.3,336.99 134.1,94.81 260,201.24 376,317.6 l 108.3,40.74 c -66,-71.29 -135.5,-139.27 -208.4,-203.52 -181,-159.51 -381.5,-296.96 -595.8,-407.89 -125,-64.77 -254.8,-120.59 -387.8,-166.82 l 267.4,-76.14 c 117.6,19.61 233.2,51.45 345.1,92.27 228.1,83.18 439.9,205.23 640,341.44 204.9,139.41 398.9,294.07 594.3,446.37 182,141.93 364.1,283.86 546.1,425.79 l 155.9,58.6 c -39.9,-31.08 -79.7,-62.16 -119.6,-93.23 -212.7,-165.87 -425.5,-331.74 -638.2,-497.61 -194.6,-151.65 -389.1,-304.05 -596.3,-438.27 -205.8,-133.35 -424.9,-248.25 -659.4,-322.08 -53.3,-16.77 -107.3,-31.27 -161.9,-43.45 l 357.2,-101.7 c 593.4,388.97 1213.1,737.74 1853.5,1043.17 329.9,157.35 665.4,303.18 1005.4,437.29 361.5,142.59 729.3,268.12 1095.4,398.33 375.5,133.55 746.5,276.77 1109,442.63 356.4,163.04 705.7,340.81 1056.2,516.14 699.9,350.21 1408.1,683.73 2124.5,998.73 41.7,18.32 83.5,36.38 125.2,54.57 l -124.8,21.5 -9474.6,-3562.12 414.4,-117.97 c 56.1,17.87 111.7,37.35 166.6,58.64" style="fill:#c46158;fill-opacity:1;fill-rule:nonzero;stroke:none" id="path104"/>
      <path d="m 25414.2,6587.65 c -800.7,-343.92 -1602.6,-692.46 -2383.9,-1078.95 -373.5,-184.8 -740.6,-384.66 -1086.8,-617.28 -341.8,-229.72 -644.7,-510.87 -985.8,-741.19 -665.2,-449.27 -1474.7,-551.28 -2209.6,-838.13 -315,-122.9 -611.6,-281.6 -896.4,-460.7 l 1143.7,-325.6 c 450.7,262.1 903,521.2 1357.2,777.2 738.6,416.35 1481.9,824.58 2229.5,1224.59 747.6,400 1499.6,791.79 2255.9,1175.28 759.5,385.15 1523.3,761.91 2291.1,1130.2 20.4,9.77 40.8,19.47 61.2,29.24 l -797.5,137.29 c -327.2,-135.01 -653.4,-272.27 -978.6,-411.95" style="fill:#c46158;fill-opacity:1;fill-rule:nonzero;stroke:none" id="path106"/>
      <path d="m 24497.8,6634.66 c -660.8,-319.75 -1315.4,-652.2 -1969.7,-985.13 -673.3,-342.63 -1346.6,-685.3 -2019.9,-1027.96 -674.5,-343.25 -1349,-686.5 -2023.5,-1029.75 C 18098,3395 17711.3,3198.3 17324.7,3001.5 l 466.8,-132.9 c 361.7,229 741.3,427 1151.1,567.6 381.2,130.75 774,224.59 1155,355.94 193,66.53 383,142.92 563.7,238.34 181.9,96.03 350.4,213.46 512.8,339.1 163.4,126.35 321.6,259.3 487.1,382.96 168.2,125.71 343.1,242.35 522.3,351.78 356.2,217.55 729.1,406.41 1106.1,585.16 801.2,379.95 1614.2,736.69 2430.6,1082.69 193.3,81.92 387,162.94 580.9,243.22 l -724.9,124.81 c -361.8,-163.46 -721,-332.64 -1078.4,-505.54" style="fill:#c46158;fill-opacity:1;fill-rule:nonzero;stroke:none" id="path108"/>
      <path d="m 26991.9,6292.04 c -726.6,-368.74 -1444.6,-755.06 -2165.7,-1134.33 -742.3,-390.33 -1484.5,-780.65 -2226.7,-1170.99 -149.8,-78.8 -316.3,-142.13 -451.6,-245.12 -137.1,-104.25 -194.3,-264.3 -295.2,-397.7 -205.9,-272.4 -549.4,-246.1 -855,-251.9 -188.4,-3.6 -364.6,-36.8 -536.8,-115.3 -170.1,-77.6 -328.2,-180.3 -485.1,-281.2 -158.2,-101.6 -313.9,-207 -467.2,-315.7 l 484.7,-138 8327.2,4425.92 -396.8,68.32 c -315.3,-137.94 -625.3,-288.46 -931.8,-444" style="fill:#c46158;fill-opacity:1;fill-rule:nonzero;stroke:none" id="path110"/>
      <path d="m 28298.5,6085.26 -8275.7,-4359.16 -1903.7,520 1904.2,-542.1 4692.6,2494.1 3582.6,1887.16 0.7,17.39 51.3,27.29 -50,8.6 5.4,140.87 -7.4,-194.15" style="fill:#151a2b;fill-opacity:1;fill-rule:nonzero;stroke:none" id="path112"/>
      <path d="m 23290.5,6837.18 c -362.4,-168.98 -719.5,-348.95 -1071.7,-538.3 -348.3,-187.26 -695.5,-371.2 -1067.7,-507.04 -368.7,-134.53 -737.5,-254.36 -1083.4,-443.09 -315.8,-172.32 -615.5,-372.96 -935.5,-537.72 -156.3,-80.47 -317.6,-152.34 -485,-206.56 -186.7,-60.47 -380,-92.63 -572.5,-128.28 -183.4,-33.94 -363.7,-75.93 -538.6,-141.38 -159.4,-59.64 -312.9,-133.82 -462.8,-214.14 -420.6,-225.32 -824,-507.98 -1267.8,-686.67 l 425.8,-121.3 c 11.2,4.5 22.3,8.9 33.5,13.4 734,296.87 1459.6,614.38 2180.2,942.37 716.9,326.28 1429,662.96 2140.5,1000.61 708.4,336.13 1416.4,673.25 2128.2,1002.07 709.8,327.89 1423.5,647.47 2144.8,949.43 24.4,10.22 48.8,20.37 73.3,30.55 l -483.1,83.17 c -391,-153.83 -777.4,-319.54 -1158.2,-497.12" style="fill:#c46158;fill-opacity:1;fill-rule:nonzero;stroke:none" id="path114"/>
      <path d="M 24838,5702.87 C 24081.7,5319.38 23329.7,4927.59 22582.1,4527.59 21834.5,4127.58 21091.2,3719.35 20352.6,3303 c -454.2,-256 -906.5,-515.1 -1357.2,-777.2 l 66.9,-19 c 344.4,200.1 689.9,398.6 1036.3,595.2 740.7,420.17 1486.1,832.2 2235.9,1235.96 746.5,402.01 1497.5,795.8 2252.7,1181.31 755.2,385.51 1514.6,762.71 2278.1,1131.52 136.5,65.93 273.2,131.5 409.9,196.89 l -84.9,14.63 c -20.4,-9.77 -40.8,-19.47 -61.2,-29.24 -767.8,-368.29 -1531.6,-745.05 -2291.1,-1130.2" style="fill:#903430;fill-opacity:1;fill-rule:nonzero;stroke:none" id="path116"/>
      <path d="m 23289.6,5689.48 c -377,-178.75 -749.9,-367.61 -1106.1,-585.16 -179.2,-109.43 -354.1,-226.07 -522.3,-351.78 -165.5,-123.66 -323.7,-256.61 -487.1,-382.96 -162.4,-125.64 -330.9,-243.07 -512.8,-339.1 -180.7,-95.42 -370.7,-171.81 -563.7,-238.34 -381,-131.35 -773.8,-225.19 -1155,-355.94 -409.8,-140.6 -789.4,-338.6 -1151.1,-567.6 l 60.2,-17.2 c 284.8,179.1 581.4,337.8 896.4,460.7 734.9,286.85 1544.4,388.86 2209.6,838.13 341.1,230.32 644,511.47 985.8,741.19 346.2,232.62 713.3,432.48 1086.8,617.28 781.3,386.49 1583.2,735.03 2383.9,1078.95 325.2,139.68 651.4,276.94 978.6,411.95 l -91.7,15.79 c -193.9,-80.28 -387.6,-161.3 -580.9,-243.22 -816.4,-346 -1629.4,-702.74 -2430.6,-1082.69" style="fill:#903430;fill-opacity:1;fill-rule:nonzero;stroke:none" id="path118"/>
      <path d="m 25086.6,5351.11 c -748.6,-393.69 -1497.2,-787.39 -2245.8,-1181.08 -169.6,-89.16 -338.8,-178.58 -510.5,-263.49 -144.6,-71.49 -273.8,-153.79 -365,-289.97 -94.6,-141.27 -159.2,-299.77 -315.3,-386.17 -149.4,-82.6 -327.2,-86.2 -493.5,-87.3 -168.5,-1.1 -337.8,1.6 -501.9,-42.6 -172.9,-46.6 -332.5,-132.2 -484.9,-224.4 -247.2,-149.5 -488.1,-310.2 -723.1,-478.7 l 62,-17.6 c 153.3,108.7 309,214.1 467.2,315.7 156.9,100.9 315,203.6 485.1,281.2 172.2,78.5 348.4,111.7 536.8,115.3 305.6,5.8 649.1,-20.5 855,251.9 100.9,133.4 158.1,293.45 295.2,397.7 135.3,102.99 301.8,166.32 451.6,245.12 742.2,390.34 1484.4,780.66 2226.7,1170.99 721.1,379.27 1439.1,765.59 2165.7,1134.33 306.5,155.54 616.5,306.06 931.8,444 l -88.4,15.23 C 27639,6664.18 27444.7,6572.48 27252.2,6477.9 26522,6119.17 25806.5,5729.74 25086.6,5351.11" style="fill:#903430;fill-opacity:1;fill-rule:nonzero;stroke:none" id="path120"/>
      <path d="m 22769.3,5828.21 c -673.8,-342.4 -1347.2,-685.53 -2020.8,-1028.33 -677.6,-344.81 -1355.1,-689.62 -2032.7,-1034.42 -487.2,-247.96 -974.5,-495.96 -1461.7,-743.86 l 70.6,-20.1 c 386.6,196.8 773.3,393.5 1160,590.32 674.5,343.25 1349,686.5 2023.5,1029.75 673.3,342.66 1346.6,685.33 2019.9,1027.96 654.3,332.93 1308.9,665.38 1969.7,985.13 357.4,172.9 716.6,342.08 1078.4,505.54 l -87.3,15.01 c -250.1,-113.5 -499,-229.68 -746.9,-347.93 -662.6,-316.06 -1318.2,-646.51 -1972.7,-979.07" style="fill:#903430;fill-opacity:1;fill-rule:nonzero;stroke:none" id="path122"/>
      <path d="M 22713.7,6271.15 C 22001.9,5942.33 21293.9,5605.21 20585.5,5269.08 19874,4931.43 19161.9,4594.75 18445,4268.47 c -720.6,-327.99 -1446.2,-645.5 -2180.2,-942.37 -11.2,-4.5 -22.3,-8.9 -33.5,-13.4 l 77.8,-22.1 c 625.4,253.6 1245,521.69 1860.5,798.61 718.2,323.14 1431.1,658.04 2142.8,995.2 708.7,335.71 1416.3,673.7 2127.1,1004.71 713.2,332.08 1429.8,657.15 2153.6,965.54 143,60.94 286.4,121.2 430,180.75 v 0 l -91.3,15.72 c -24.5,-10.18 -48.9,-20.33 -73.3,-30.55 -721.3,-301.96 -1435,-621.54 -2144.8,-949.43" style="fill:#903430;fill-opacity:1;fill-rule:nonzero;stroke:none" id="path124"/>
      <path d="m 22489.5,6498.55 c -353.4,-183.27 -697.8,-386.27 -1063.5,-544.8 -364.8,-158.17 -752.1,-258.29 -1113.5,-425.08 -327.3,-151.03 -629.3,-349.17 -940.8,-529.04 -320.5,-185.04 -650.9,-342.88 -1015,-419.42 -199.2,-41.89 -401.7,-68.85 -598.6,-121.5 -158.2,-42.28 -311.4,-101.38 -460.1,-169.78 -537.4,-247.33 -1015.9,-624.51 -1570.9,-832.63 l 78.4,-22.3 c 443.8,178.69 847.2,461.35 1267.8,686.67 149.9,80.32 303.4,154.5 462.8,214.14 174.9,65.45 355.2,107.44 538.6,141.38 192.5,35.65 385.8,67.81 572.5,128.28 167.4,54.22 328.7,126.09 485,206.56 320,164.76 619.7,365.4 935.5,537.72 345.9,188.73 714.7,308.56 1083.4,443.09 372.2,135.84 719.4,319.78 1067.7,507.04 352.2,189.35 709.3,369.32 1071.7,538.3 380.8,177.58 767.2,343.29 1158.2,497.12 l -94.1,16.19 c -264,-105.07 -525.9,-215.5 -785.4,-331.41 -364.9,-162.97 -725,-336.57 -1079.7,-520.53" style="fill:#903430;fill-opacity:1;fill-rule:nonzero;stroke:none" id="path126"/>
      <path d="m 15766,4044.53 c 207.2,134.22 401.7,286.62 596.3,438.27 212.7,165.87 425.5,331.74 638.2,497.61 39.9,31.07 79.7,62.15 119.6,93.23 l -155.9,-58.6 c -182,-141.93 -364.1,-283.86 -546.1,-425.79 -195.4,-152.3 -389.4,-306.96 -594.3,-446.37 -200.1,-136.21 -411.9,-258.26 -640,-341.44 -111.9,-40.82 -227.5,-72.66 -345.1,-92.27 l 106,-30.17 c 54.6,12.18 108.6,26.68 161.9,43.45 234.5,73.83 453.6,188.73 659.4,322.08" style="fill:#903430;fill-opacity:1;fill-rule:nonzero;stroke:none" id="path128"/>
      <path d="m 15554.9,4360.02 c 72.9,64.25 142.4,132.23 208.4,203.52 L 15655,4522.8 c -116,-116.36 -241.9,-222.79 -376,-317.6 -194,-137.09 -404.8,-251.11 -626.3,-336.99 -54.9,-21.29 -110.5,-40.77 -166.6,-58.64 l 85.2,-24.26 c 133,46.23 262.8,102.05 387.8,166.82 214.3,110.93 414.8,248.38 595.8,407.89" style="fill:#903430;fill-opacity:1;fill-rule:nonzero;stroke:none" id="path130"/>
      <path d="m 21421.4,6414.86 c -350.5,-175.33 -699.8,-353.1 -1056.2,-516.14 -362.5,-165.86 -733.5,-309.08 -1109,-442.63 -366.1,-130.21 -733.9,-255.74 -1095.4,-398.33 -340,-134.11 -675.5,-279.94 -1005.4,-437.29 -640.4,-305.43 -1260.1,-654.2 -1853.5,-1043.17 l 63.7,-18.12 c 502.9,327.42 1024.3,626.31 1561.4,894.34 676.2,337.5 1375.4,613.9 2087.8,864.48 367.4,129.22 734.7,259.12 1093,412.28 360.3,154.05 711.9,327.42 1062.2,502.77 697.1,348.96 1397.9,689.21 2109.4,1007.9 159.8,71.58 320.1,142.12 480.8,211.89 l -89.1,15.32 c -41.7,-18.19 -83.5,-36.25 -125.2,-54.57 -716.4,-315 -1424.6,-648.52 -2124.5,-998.73" style="fill:#903430;fill-opacity:1;fill-rule:nonzero;stroke:none" id="path132"/>
      <path d="m 14109.5,3341.3 4009.6,-1095.2 1903.7,-520 -29.5,515.7 -484.7,138 -62,17.6 -384.3,109.4 -66.9,19 -1143.7,325.6 -60.2,17.2 -466.8,132.9 -70.6,20.1 -945,269 -77.8,22.1 -425.8,121.3 -78.4,22.3 -361.5,102.88 -63.7,18.12 -357.2,101.7 -106,30.17 -267.4,76.14 -85.2,24.26 -414.4,117.97 34.6,-536.04 0.2,-3.1 3,-47.1" style="fill:#eb7d78;fill-opacity:1;fill-rule:nonzero;stroke:none" id="path134"/>
      <path d="m 19993.3,2241.8 29.5,-515.7 8275.7,4359.16 7.4,194.15 14.6,388.31 -8327.2,-4425.92" style="fill:#903430;fill-opacity:1;fill-rule:nonzero;stroke:none" id="path136"/>
      <path d="m 22565.8,5554.61 c -427.1,103.27 -1745.3,339.23 -1800.4,308.65 -76.3,-42.3 -3694,-1151.61 -3694,-1151.61 L 16391,4509.72 c -78.2,-23.2 -77.5,-134.11 0.9,-156.42 l 2329.4,-682.69 c 53.4,-15.2 110.4,-11.98 161.8,9.15 l 3696.1,1699.25 c 83.1,34.11 73.9,154.52 -13.4,175.6" style="fill:#151a2b;fill-opacity:1;fill-rule:nonzero;stroke:none" id="path138"/>
      <path d="m 25031.8,6847.68 c 0,-80.78 -348.2,-146.26 -777.8,-146.26 -429.5,0 -777.7,65.48 -777.7,146.26 0,80.78 348.2,146.26 777.7,146.26 429.6,0 777.8,-65.48 777.8,-146.26" style="fill:#151a2b;fill-opacity:1;fill-rule:nonzero;stroke:none" id="path140"/>
      <path d="m 24924.2,7323.67 c 3.1,4.73 7.6,14.21 0,0" style="fill:#fbbf20;fill-opacity:1;fill-rule:nonzero;stroke:none" id="path142"/>
      <path d="m 24960.2,7443.51 c -3.3,-26.55 -8.4,-52.55 -16.1,-77.66 -4.9,-12.95 -10.5,-25.47 -16.9,-37.33 -1.6,-2.83 -3.3,-5.51 -4.8,-8.36 0.7,1.31 1.3,2.47 1.8,3.51 l -0.3,-0.56 c -4,-5.86 -8.2,-11.5 -12.6,-16.88 -4,-4.82 -8.2,-9.3 -12.4,-13.85 -2.5,-2.26 -5,-4.48 -7.6,-6.61 -9.1,-7.56 -18.7,-13.95 -28.7,-19.73 -12.2,-5.73 -24.9,-10.05 -37.8,-12.92 -10.4,-1.15 -20.9,-1.28 -31.4,-0.28 -1.7,0.43 -3.4,0.88 -5.1,1.39 v 607.85 c 1.2,1.26 2.4,2.51 3.6,3.77 2.2,2 4.4,4.04 6.7,5.98 9.3,7.85 18.9,14.77 29,20.78 8.7,4.02 17.5,7.21 26.6,9.46 5.9,0.51 11.9,0.52 17.9,0.07 5.2,-1.35 10.2,-3.1 15.3,-5.23 4.8,-2.96 9.5,-6.14 13.9,-9.85 l 1.5,-1.27 c 2.4,-2.71 4.9,-5.37 7.2,-8.27 2,-2.59 3.9,-5.36 5.8,-8.1 0.7,-1.25 1.4,-2.49 2.1,-3.76 3.7,-7.3 6.8,-14.98 9.8,-22.79 15.2,-49.77 22.7,-104.4 28.6,-157.09 8.2,-79.82 11.2,-162.16 3.9,-242.27 z m -356.9,602.98 v -0.01 c -23,-6.07 -47.6,-11.56 -73.8,-16.39 l -2.2,-0.41 c -5.9,-1.08 -11.9,-2.11 -17.9,-3.12 -1.5,-0.25 -3,-0.49 -4.5,-0.73 -17.6,-2.87 -35.7,-5.43 -54.4,-7.7 -2.8,-0.34 -5.6,-0.69 -8.4,-1.02 -4.8,-0.55 -9.7,-1.07 -14.5,-1.57 -3.9,-0.42 -7.9,-0.82 -11.8,-1.2 -4.5,-0.43 -9,-0.86 -13.4,-1.25 -5.1,-0.45 -10.1,-0.85 -15.2,-1.25 -3.7,-0.29 -7.3,-0.6 -11,-0.87 -8.6,-0.61 -17.2,-1.16 -25.9,-1.64 -3,-0.17 -6.1,-0.3 -9.1,-0.45 -6.4,-0.33 -12.8,-0.62 -19.2,-0.87 -3.4,-0.13 -6.9,-0.25 -10.3,-0.36 -6.5,-0.21 -13,-0.39 -19.6,-0.53 -3,-0.06 -6.1,-0.14 -9.2,-0.2 -9.6,-0.15 -19.2,-0.25 -28.9,-0.25 -9.7,0 -19.3,0.1 -28.8,0.25 -3.1,0.06 -6.2,0.14 -9.2,0.2 -6.6,0.14 -13.1,0.32 -19.6,0.53 -3.5,0.11 -6.9,0.23 -10.3,0.36 -6.5,0.25 -12.8,0.54 -19.2,0.87 -3,0.15 -6.1,0.28 -9.1,0.45 -8.7,0.48 -17.4,1.03 -25.9,1.64 -3.7,0.27 -7.3,0.58 -11,0.87 -5.1,0.4 -10.1,0.8 -15.2,1.25 -4.5,0.39 -8.9,0.82 -13.4,1.25 -3.9,0.38 -7.9,0.78 -11.8,1.2 -4.9,0.5 -9.7,1.02 -14.5,1.57 -2.8,0.33 -5.6,0.68 -8.4,1.02 -18.7,2.27 -36.9,4.83 -54.4,7.7 -1.5,0.24 -3,0.48 -4.5,0.73 -6.1,1.01 -12,2.04 -17.9,3.12 l -2.2,0.41 c -26.2,4.83 -50.9,10.32 -73.9,16.39 v 0.01 c -26.3,6.96 -50.5,14.65 -71.9,23.04 -35.9,20.47 -56.3,43.84 -56.3,68.69 0,80.53 213.8,145.8 477.5,145.8 263.8,0 477.6,-65.27 477.6,-145.8 0,-24.85 -20.4,-48.22 -56.3,-68.69 -21.4,-8.39 -45.6,-16.08 -72,-23.04 z m 467.8,-318.48 c -7.5,63.5 -17.5,128.19 -38.9,186.87 -22.1,60.68 -64,106.01 -114,127.19 -42.3,17.86 -88.4,11.88 -129.9,-8.12 v 135.85 c 0,90.09 -239.2,163.13 -534.3,163.13 -295,0 -534.3,-73.04 -534.3,-163.13 V 7015.39 c 0,-90.1 239.3,-163.13 534.3,-163.13 295.1,0 534.3,73.03 534.3,163.13 v 87.9 0 c 25.2,-3.39 51.3,0.24 75.9,6.83 96.1,25.68 171.4,119.49 200.6,235.56 14.5,57.43 17.8,119.52 18.4,179.44 0.6,68.04 -4.1,135.63 -12.1,202.89" style="fill:#fbbf20;fill-opacity:1;fill-rule:nonzero;stroke:none" id="path144"/>
      <path d="m 24186.1,8008.01 c 3.4,-0.13 6.8,-0.25 10.3,-0.36 -3.5,0.11 -6.9,0.23 -10.3,0.36" style="fill:#151a2b;fill-opacity:1;fill-rule:nonzero;stroke:none" id="path146"/>
      <path d="m 24157.8,8009.33 c 3,-0.17 6.1,-0.3 9.1,-0.45 -3,0.15 -6.1,0.28 -9.1,0.45" style="fill:#151a2b;fill-opacity:1;fill-rule:nonzero;stroke:none" id="path148"/>
      <path d="m 24216,8007.12 c 3,-0.06 6.1,-0.14 9.2,-0.2 -3.1,0.06 -6.2,0.13 -9.2,0.2" style="fill:#151a2b;fill-opacity:1;fill-rule:nonzero;stroke:none" id="path150"/>
      <path d="m 24376.2,8010.97 c 3.7,0.27 7.3,0.58 11,0.87 -3.7,-0.29 -7.3,-0.6 -11,-0.87" style="fill:#151a2b;fill-opacity:1;fill-rule:nonzero;stroke:none" id="path152"/>
      <path d="m 24675.3,8069.53 c 35.9,20.47 56.3,43.84 56.3,68.69 0,80.53 -213.8,145.8 -477.6,145.8 -263.7,0 -477.5,-65.27 -477.5,-145.8 0,-24.85 20.4,-48.22 56.3,-68.69 21.4,-8.39 45.6,-16.08 71.9,-23.04 87.2,28.55 211.4,46.43 349.3,46.43 138,0 262.2,-17.88 349.3,-46.43 26.4,6.96 50.6,14.65 72,23.04" style="fill:#151a2b;fill-opacity:1;fill-rule:nonzero;stroke:none" id="path154"/>
      <path d="m 24057.6,8018.13 c -18.7,2.27 -36.9,4.83 -54.4,7.7 17.5,-2.87 35.7,-5.43 54.4,-7.7" style="fill:#151a2b;fill-opacity:1;fill-rule:nonzero;stroke:none" id="path156"/>
      <path d="m 23998.7,8026.56 c -6,1.01 -12,2.04 -17.9,3.12 5.9,-1.08 11.8,-2.11 17.9,-3.12" style="fill:#151a2b;fill-opacity:1;fill-rule:nonzero;stroke:none" id="path158"/>
      <path d="m 23978.6,8030.09 c -26.1,4.83 -50.9,10.32 -73.9,16.39 23,-6.07 47.7,-11.56 73.9,-16.39" style="fill:#151a2b;fill-opacity:1;fill-rule:nonzero;stroke:none" id="path160"/>
      <path d="m 24120.9,8011.84 c 3.7,-0.29 7.3,-0.6 11,-0.87 -3.7,0.27 -7.3,0.58 -11,0.87" style="fill:#151a2b;fill-opacity:1;fill-rule:nonzero;stroke:none" id="path162"/>
      <path d="m 24311.7,8007.65 c 3.4,0.11 6.9,0.23 10.3,0.36 -3.4,-0.13 -6.9,-0.25 -10.3,-0.36" style="fill:#151a2b;fill-opacity:1;fill-rule:nonzero;stroke:none" id="path164"/>
      <path d="m 24282.9,8006.92 c 3.1,0.06 6.2,0.14 9.2,0.2 -3,-0.07 -6.1,-0.14 -9.2,-0.2" style="fill:#151a2b;fill-opacity:1;fill-rule:nonzero;stroke:none" id="path166"/>
      <path d="m 24442.1,8017.11 c -4.8,-0.55 -9.7,-1.06 -14.5,-1.57 4.8,0.5 9.7,1.02 14.5,1.57" style="fill:#151a2b;fill-opacity:1;fill-rule:nonzero;stroke:none" id="path168"/>
      <path d="m 24603.3,8046.48 c -22.9,-6.07 -47.7,-11.56 -73.8,-16.39 26.2,4.83 50.8,10.32 73.8,16.39" style="fill:#151a2b;fill-opacity:1;fill-rule:nonzero;stroke:none" id="path170"/>
      <path d="m 24080.5,8015.54 c -4.9,0.51 -9.7,1.02 -14.5,1.57 4.8,-0.55 9.6,-1.07 14.5,-1.57" style="fill:#151a2b;fill-opacity:1;fill-rule:nonzero;stroke:none" id="path172"/>
      <path d="m 24527.3,8029.68 c -5.9,-1.08 -11.9,-2.11 -17.9,-3.12 6,1.01 12,2.04 17.9,3.12" style="fill:#151a2b;fill-opacity:1;fill-rule:nonzero;stroke:none" id="path174"/>
      <path d="m 24341.2,8008.88 c 3,0.15 6.1,0.28 9.1,0.45 -3,-0.17 -6.1,-0.3 -9.1,-0.45" style="fill:#151a2b;fill-opacity:1;fill-rule:nonzero;stroke:none" id="path176"/>
      <path d="m 24504.9,8025.83 c -17.6,-2.87 -35.7,-5.43 -54.4,-7.7 18.7,2.27 36.8,4.83 54.4,7.7" style="fill:#151a2b;fill-opacity:1;fill-rule:nonzero;stroke:none" id="path178"/>
      <path d="m 24105.7,8013.09 c -4.5,0.39 -8.9,0.82 -13.4,1.25 4.5,-0.43 8.9,-0.86 13.4,-1.25" style="fill:#151a2b;fill-opacity:1;fill-rule:nonzero;stroke:none" id="path180"/>
      <path d="m 24415.8,8014.34 c -4.5,-0.43 -9,-0.86 -13.4,-1.25 4.4,0.39 8.9,0.82 13.4,1.25" style="fill:#151a2b;fill-opacity:1;fill-rule:nonzero;stroke:none" id="path182"/>
      <path d="m 23904.7,8046.49 v 0 -0.01 c 23,-6.07 47.8,-11.56 73.9,-16.39 l 2.2,-0.41 c 5.9,-1.08 11.9,-2.11 17.9,-3.12 1.5,-0.25 3,-0.49 4.5,-0.73 17.5,-2.87 35.7,-5.43 54.4,-7.7 2.8,-0.34 5.6,-0.69 8.4,-1.02 4.8,-0.55 9.6,-1.06 14.5,-1.57 3.9,-0.42 7.9,-0.82 11.8,-1.2 4.5,-0.43 8.9,-0.86 13.4,-1.25 5.1,-0.45 10.1,-0.85 15.2,-1.25 3.7,-0.29 7.3,-0.6 11,-0.87 8.5,-0.61 17.2,-1.16 25.9,-1.64 3,-0.17 6.1,-0.3 9.1,-0.45 6.4,-0.33 12.7,-0.62 19.2,-0.87 3.4,-0.13 6.8,-0.25 10.3,-0.36 6.5,-0.21 13,-0.39 19.6,-0.53 3,-0.07 6.1,-0.14 9.2,-0.2 9.5,-0.15 19.1,-0.25 28.8,-0.25 9.7,0 19.3,0.1 28.9,0.25 3.1,0.06 6.2,0.13 9.2,0.2 6.6,0.14 13.1,0.32 19.6,0.53 3.4,0.11 6.9,0.23 10.3,0.36 6.4,0.25 12.8,0.54 19.2,0.87 3,0.15 6.1,0.28 9.1,0.45 8.7,0.48 17.3,1.03 25.9,1.64 3.7,0.27 7.3,0.58 11,0.87 5.1,0.4 10.1,0.8 15.2,1.25 4.4,0.39 8.9,0.82 13.4,1.25 3.9,0.38 7.9,0.78 11.8,1.2 4.8,0.51 9.7,1.02 14.5,1.57 2.8,0.33 5.6,0.68 8.4,1.02 18.7,2.27 36.8,4.83 54.4,7.7 1.5,0.24 3,0.48 4.5,0.73 6,1.01 12,2.04 17.9,3.12 l 2.2,0.41 c 26.1,4.83 50.9,10.32 73.8,16.39 v 0.01 c -87.1,28.55 -211.3,46.43 -349.3,46.43 -137.9,0 -262.1,-17.88 -349.3,-46.43" style="fill:#c46158;fill-opacity:1;fill-rule:nonzero;stroke:none" id="path184"/>
      <path d="m 24075.8,7538.93 c 0,213.41 -107.5,386.42 -240.3,386.42 -42,0 -81.4,-17.36 -115.8,-47.8 v -677.24 c 34.4,-30.44 73.8,-47.8 115.8,-47.8 132.8,0 240.3,173.01 240.3,386.42" style="fill:#ffffff;fill-opacity:1;fill-rule:nonzero;stroke:none" id="path186"/>
      <path d="m 24031.2,8353.54 c -7.8,0 -15.1,3.98 -18.4,10.61 -24.1,49.16 2.9,97.26 29,143.79 23.1,41.23 45,80.17 28.2,114.57 -10.6,21.77 -35.2,37.17 -61.2,53.49 -31.9,19.99 -64.9,40.65 -77.1,75.93 -20.8,59.74 37.3,117.17 56.4,136.04 l 2.9,2.89 c 31.6,31.15 64.2,63.37 62.7,99.66 -1.4,31.39 -27.8,57.07 -55.7,84.25 -19.1,18.57 -38.9,37.78 -52.5,60.39 -42.3,70.3 -9.4,165.26 70.4,203.2 3.1,1.45 6.3,2.13 9.6,2.13 7.1,0 13.9,-3.31 17.5,-9.15 5.3,-8.49 1.7,-19.11 -8,-23.72 -60.2,-28.65 -86,-103.09 -54.1,-156.17 11.3,-18.75 28.6,-35.53 46.8,-53.29 31.5,-30.61 64,-62.27 65.9,-106.31 2.2,-50.33 -37.5,-89.57 -72.6,-124.19 l -2.9,-2.87 c -42,-41.49 -57.7,-75.09 -48.2,-102.7 8.3,-23.91 34.5,-40.3 62.2,-57.65 29.3,-18.4 59.7,-37.43 74.7,-68.2 24,-49.15 -3,-97.23 -29.1,-143.72 -23.1,-41.23 -45,-80.19 -28.1,-114.58 4.3,-8.88 -0.4,-19.17 -10.5,-22.97 -2.6,-0.96 -5.3,-1.43 -7.9,-1.43" style="fill:#6772b2;fill-opacity:1;fill-rule:nonzero;stroke:none" id="path188"/>
      <path d="m 24225.6,8353.54 c -7.7,0 -15.1,3.98 -18.4,10.61 -24.1,49.16 2.9,97.26 29,143.79 23.1,41.23 45,80.17 28.2,114.57 -10.6,21.77 -35.2,37.17 -61.2,53.49 -31.9,19.99 -64.9,40.65 -77.1,75.93 -20.8,59.74 37.3,117.17 56.4,136.04 l 2.9,2.86 c 31.6,31.16 64.3,63.38 62.7,99.69 -1.4,31.39 -27.8,57.07 -55.7,84.25 -19.1,18.57 -38.8,37.78 -52.4,60.39 -42.4,70.3 -9.5,165.26 70.3,203.2 3.1,1.45 6.3,2.13 9.6,2.13 7.1,0 13.9,-3.31 17.5,-9.15 5.3,-8.49 1.7,-19.11 -8,-23.72 -60.2,-28.65 -86,-103.09 -54.1,-156.17 11.3,-18.75 28.6,-35.53 46.8,-53.29 31.5,-30.61 64,-62.27 66,-106.31 2.1,-50.34 -37.6,-89.6 -72.7,-124.23 l -2.9,-2.83 c -42,-41.49 -57.7,-75.09 -48.1,-102.7 8.2,-23.91 34.4,-40.3 62.1,-57.65 29.3,-18.4 59.7,-37.43 74.7,-68.2 24,-49.15 -3,-97.23 -29.1,-143.72 -23.1,-41.23 -45,-80.19 -28.1,-114.58 4.3,-8.88 -0.4,-19.17 -10.5,-22.97 -2.6,-0.96 -5.3,-1.43 -7.9,-1.43" style="fill:#6772b2;fill-opacity:1;fill-rule:nonzero;stroke:none" id="path190"/>
      <path d="m 24420,8353.54 c -7.7,0 -15.1,3.98 -18.4,10.61 -24.1,49.16 2.9,97.26 29,143.79 23.2,41.23 45,80.17 28.2,114.57 -10.6,21.77 -35.2,37.17 -61.2,53.49 -31.9,19.99 -64.9,40.65 -77.1,75.93 -20.7,59.74 37.4,117.17 56.5,136.04 l 2.8,2.86 c 31.6,31.16 64.3,63.38 62.7,99.69 -1.4,31.39 -27.8,57.07 -55.7,84.25 -19.1,18.57 -38.8,37.78 -52.4,60.39 -42.3,70.3 -9.5,165.26 70.3,203.2 3.1,1.45 6.4,2.13 9.6,2.13 7.1,0 13.9,-3.31 17.6,-9.15 5.3,-8.49 1.7,-19.11 -8.1,-23.72 -60.2,-28.65 -86,-103.09 -54,-156.17 11.3,-18.75 28.5,-35.53 46.8,-53.29 31.4,-30.61 63.9,-62.27 65.9,-106.31 2.1,-50.34 -37.6,-89.6 -72.7,-124.23 l -2.9,-2.83 c -42,-41.49 -57.7,-75.09 -48.1,-102.7 8.3,-23.91 34.4,-40.3 62.1,-57.65 29.4,-18.4 59.7,-37.43 74.7,-68.2 24,-49.15 -3,-97.23 -29.1,-143.72 -23.1,-41.23 -45,-80.19 -28.1,-114.58 4.4,-8.88 -0.3,-19.17 -10.5,-22.97 -2.6,-0.96 -5.2,-1.43 -7.9,-1.43" style="fill:#6772b2;fill-opacity:1;fill-rule:nonzero;stroke:none" id="path192"/>
      <path d="m 21755.2,5690.82 -138.3,64.45 -436.7,2797.23 -4012,-1013.95 -756,-3004.63 c -17.2,-68.41 26.3,-137.3 95.5,-151.02 l 1405.7,-358.36 c 30.7,-7.84 63.2,-5.55 92.6,6.53 l 3769.7,1550.84 c 15.9,6.53 26,22.26 25.4,39.42 -0.9,26.87 -21.5,58.14 -45.9,69.49" style="fill:#282d2c;fill-opacity:1;fill-rule:nonzero;stroke:none" id="path194"/>
      <path d="m 16592.9,4455.5 1375.8,-272.88 3654.6,1531.67 -443.1,2838.21 -3940.7,-995.91 -742.2,-2950.08 c -17.2,-68.41 26.4,-137.29 95.6,-151.01" style="fill:#1c1b1a;fill-opacity:1;fill-rule:nonzero;stroke:none" id="path196"/>
      <path d="m 16538.8,4481.1 c 15.1,-12.43 33.4,-21.51 54.1,-25.6 l 1375.8,-272.88 3654.6,1531.67 -90.4,579.08 -4994.1,-1812.27" style="fill:#333232;fill-opacity:1;fill-rule:nonzero;stroke:none" id="path198"/>
      <path d="m 21712.5,5758.74 -406.6,2781.15 c -14.3,98.48 -111.4,162.39 -207.6,136.7 L 17288.1,7658.76 c -84.9,-22.67 -138.3,-106.49 -123,-192.97 l 569.5,-3216.94 c 18.7,-105.7 129.8,-167.48 229.5,-127.6 l 3645.6,1458.92 c 71.4,28.59 113.9,102.43 102.8,178.57" style="fill:#1c1b1a;fill-opacity:1;fill-rule:nonzero;stroke:none" id="path200"/>
      <path d="M 21630.1,5842.21 21261.4,8364 c -13,89.3 -101,147.25 -188.2,123.95 l -3583.6,-957.21 c -76.9,-20.55 -125.3,-96.56 -111.5,-174.98 l 516.4,-2916.93 c 17,-95.84 117.7,-151.87 208.1,-115.71 l 3434.2,1357.18 c 64.8,25.92 103.4,92.87 93.3,161.91" style="fill:#ffffff;fill-opacity:1;fill-rule:nonzero;stroke:none" id="path202"/>
      <path d="m 17675.8,7420.08 c 0,-38.43 -31.1,-69.59 -69.5,-69.59 -38.5,0 -69.6,31.16 -69.6,69.59 0,38.43 31.1,69.58 69.6,69.58 38.4,0 69.5,-31.15 69.5,-69.58" style="fill:#f582c6;fill-opacity:1;fill-rule:nonzero;stroke:none" id="path204"/>
      <path d="m 17861.1,7468.16 c 0,-38.42 -31.1,-69.58 -69.6,-69.58 -38.4,0 -69.5,31.16 -69.5,69.58 0,38.44 31.1,69.59 69.5,69.59 38.5,0 69.6,-31.15 69.6,-69.59" style="fill:#f582c6;fill-opacity:1;fill-rule:nonzero;stroke:none" id="path206"/>
      <path d="m 18046.4,7516.25 c 0,-38.43 -31.2,-69.58 -69.6,-69.58 -38.4,0 -69.6,31.15 -69.6,69.58 0,38.43 31.2,69.58 69.6,69.58 38.4,0 69.6,-31.15 69.6,-69.58" style="fill:#f582c6;fill-opacity:1;fill-rule:nonzero;stroke:none" id="path208"/>
      <path d="m 20537.1,6057.02 -231.9,1759.64 c -8.2,56.17 -63.5,92.62 -118.4,77.97 l -2254.4,-602.17 c -48.4,-12.93 -78.8,-60.75 -70.1,-110.08 l 324.8,-1835.01 c 10.7,-60.29 74.1,-95.53 130.9,-72.79 l 2160.5,680.59 c 40.7,16.3 65,58.42 58.6,101.85" style="fill:#9cb0e0;fill-opacity:1;fill-rule:nonzero;stroke:none" id="path210"/>
      <path d="m 18731.9,4826.06 -47.4,283.83 c -1.6,9.05 -10.8,14.65 -19.6,11.97 L 18303,5011.67 c -7.8,-2.36 -12.5,-10.28 -10.8,-18.23 l 62.9,-295.51 c 2.1,-9.72 12.6,-15.07 21.6,-11.06 l 346.3,122.36 c 6.5,2.87 10.2,9.83 8.9,16.83" style="fill:#9cb0e0;fill-opacity:1;fill-rule:nonzero;stroke:none" id="path212"/>
      <path d="m 19199.2,4993.05 -47.4,283.82 c -1.6,9.06 -10.8,14.65 -19.6,11.97 l -361.9,-110.18 c -7.8,-2.37 -12.5,-10.29 -10.8,-18.23 l 62.9,-295.52 c 2.1,-9.71 12.5,-15.07 21.6,-11.06 l 346.3,122.37 c 6.5,2.86 10.2,9.82 8.9,16.83" style="fill:#9cb0e0;fill-opacity:1;fill-rule:nonzero;stroke:none" id="path214"/>
      <path d="m 19666.5,5160.03 -47.4,283.82 c -1.7,9.06 -10.8,14.66 -19.6,11.98 l -362,-110.19 c -7.7,-2.36 -12.4,-10.28 -10.7,-18.23 l 62.9,-295.52 c 2.1,-9.71 12.5,-15.06 21.6,-11.06 l 346.3,122.37 c 6.5,2.87 10.2,9.83 8.9,16.83" style="fill:#9cb0e0;fill-opacity:1;fill-rule:nonzero;stroke:none" id="path216"/>
      <path d="m 20133.8,5327.02 -47.4,283.82 c -1.7,9.05 -10.9,14.65 -19.7,11.97 l -361.9,-110.18 c -7.7,-2.37 -12.4,-10.29 -10.7,-18.24 l 62.9,-295.51 c 2,-9.71 12.5,-15.07 21.6,-11.06 l 346.3,122.36 c 6.5,2.87 10.2,9.83 8.9,16.84" style="fill:#9cb0e0;fill-opacity:1;fill-rule:nonzero;stroke:none" id="path218"/>
      <path d="m 20601.1,5494 -47.5,283.82 c -1.6,9.06 -10.8,14.66 -19.6,11.97 l -361.9,-110.18 c -7.8,-2.37 -12.4,-10.28 -10.8,-18.23 l 62.9,-295.52 c 2.1,-9.71 12.6,-15.06 21.7,-11.06 l 346.2,122.37 c 6.5,2.86 10.2,9.83 9,16.83" style="fill:#9cb0e0;fill-opacity:1;fill-rule:nonzero;stroke:none" id="path220"/>
      <path d="m 17828.4,4208.02 -570.5,3222.33 c -15.3,86.63 38.2,170.6 123.2,193.3 l 3816.7,1019.54 c 14.5,3.89 29.1,5.5 43.4,5.48 -39.3,29.46 -91.1,41.74 -142.9,27.92 L 17288.1,7658.76 c -84.9,-22.67 -138.3,-106.49 -123,-192.97 l 569.5,-3216.94 c 13.7,-77.41 77,-131.21 149,-138.82 -27.9,24.32 -48.2,58.01 -55.2,97.99" style="fill:#707273;fill-opacity:1;fill-rule:nonzero;stroke:none" id="path222"/>
      <path d="M 21098.3,8676.59 17288.1,7658.76 c -66.9,-17.87 -114.1,-73.75 -123.6,-138.95 l 96.8,-15.76 c 15.4,56.7 59.6,103.52 119.8,119.6 l 3816.7,1019.54 c 14.5,3.89 29.1,5.5 43.4,5.48 -39.3,29.46 -91.1,41.74 -142.9,27.92" style="fill:#dfdfdd;fill-opacity:1;fill-rule:nonzero;stroke:none" id="path224"/>
      <path d="m 17483.4,7710.94 163.9,-16.18 265.4,70.9 -122.8,27.14 -306.5,-81.86" style="fill:#f2f2f2;fill-opacity:1;fill-rule:nonzero;stroke:none" id="path226"/>
      <path d="m 19296.4,8067.47 c 0.6,-17.72 -13.3,-32.55 -31,-33.14 -17.7,-0.59 -32.6,13.28 -33.2,31 -0.5,17.71 13.3,32.54 31,33.13 17.7,0.59 32.6,-13.28 33.2,-30.99" style="fill:#ffffff;fill-opacity:1;fill-rule:nonzero;stroke:none" id="path228"/>
      <path d="m 21535.7,5869.51 -348.2,2352.96 c -8.3,67.32 -73.4,112.33 -139.4,96.3 l -516.7,-159.96 c -58.1,-14.15 -95.8,-70.44 -86.7,-129.59 l 374.5,-2370.05 c 11.1,-72.3 85.9,-116.09 154.4,-90.44 l 489.3,180.7 c 49.1,18.39 79.2,68.04 72.8,120.08" style="fill:#9cb0e0;fill-opacity:1;fill-rule:nonzero;stroke:none" id="path230"/>
      <path d="m 20790.6,7851.3 -24.2,144.74 c -0.5,4.62 -4.9,7.76 -9.4,6.71 l -176.3,-43.16 c -4,-0.92 -6.6,-4.76 -6.1,-8.82 l 21.6,-151.17 c 0.7,-4.97 5.8,-8.03 10.6,-6.32 l 178.7,49.84 c 3.4,1.23 5.5,4.6 5.1,8.18" style="fill:#ffffff;fill-opacity:1;fill-rule:nonzero;stroke:none" id="path232"/>
      <path d="m 20830,7943.89 c -2.3,0 -4.3,1.54 -4.9,3.84 -0.6,2.69 1.1,5.39 3.7,6.02 l 300,71.11 c 2.8,0.66 5.4,-1.02 6.1,-3.71 0.6,-2.68 -1.1,-5.38 -3.7,-6.01 l -300,-71.12 -1.2,-0.13" style="fill:#ffffff;fill-opacity:1;fill-rule:nonzero;stroke:none" id="path234"/>
      <path d="m 20834.8,7551.26 -24.2,144.74 c -0.5,4.62 -4.9,7.76 -9.4,6.71 l -176.3,-43.16 c -4,-0.93 -6.6,-4.76 -6.1,-8.82 l 21.6,-151.17 c 0.7,-4.97 5.8,-8.03 10.6,-6.32 l 178.7,49.84 c 3.4,1.22 5.5,4.61 5.1,8.18" style="fill:#ffffff;fill-opacity:1;fill-rule:nonzero;stroke:none" id="path236"/>
      <path d="m 20874.2,7643.85 c -2.3,0 -4.3,1.55 -4.9,3.85 -0.6,2.68 1.1,5.38 3.7,6.01 l 300,71.11 c 2.8,0.66 5.4,-1.02 6.1,-3.71 0.6,-2.68 -1.1,-5.38 -3.7,-6.01 l -300,-71.12 -1.2,-0.13" style="fill:#ffffff;fill-opacity:1;fill-rule:nonzero;stroke:none" id="path238"/>
      <path d="m 20879,7251.22 -24.2,144.74 c -0.5,4.62 -4.9,7.76 -9.4,6.71 l -176.3,-43.16 c -4,-0.93 -6.6,-4.76 -6.1,-8.83 l 21.6,-151.16 c 0.7,-4.97 5.8,-8.03 10.6,-6.32 l 178.7,49.84 c 3.4,1.22 5.5,4.6 5.1,8.18" style="fill:#ffffff;fill-opacity:1;fill-rule:nonzero;stroke:none" id="path240"/>
      <path d="m 20918.4,7343.8 c -2.3,0 -4.3,1.55 -4.9,3.85 -0.6,2.69 1.1,5.38 3.7,6.02 l 300,71.11 c 2.8,0.65 5.4,-1.02 6.1,-3.71 0.6,-2.69 -1.1,-5.38 -3.7,-6.02 l -300,-71.11 -1.2,-0.14" style="fill:#ffffff;fill-opacity:1;fill-rule:nonzero;stroke:none" id="path242"/>
      <path d="m 20923.2,6951.18 -24.2,144.74 c -0.5,4.62 -4.9,7.76 -9.4,6.71 l -176.3,-43.16 c -4,-0.93 -6.6,-4.76 -6.1,-8.83 l 21.6,-151.16 c 0.7,-4.97 5.8,-8.03 10.6,-6.32 l 178.7,49.83 c 3.4,1.23 5.5,4.61 5.1,8.19" style="fill:#ffffff;fill-opacity:1;fill-rule:nonzero;stroke:none" id="path244"/>
      <path d="m 20962.6,7043.76 c -2.3,0 -4.3,1.55 -4.9,3.85 -0.6,2.69 1.1,5.38 3.7,6.02 l 300,71.11 c 2.8,0.66 5.4,-1.02 6.1,-3.71 0.6,-2.69 -1.1,-5.38 -3.7,-6.02 l -300,-71.11 -1.2,-0.14" style="fill:#ffffff;fill-opacity:1;fill-rule:nonzero;stroke:none" id="path246"/>
      <path d="m 20967.4,6651.13 -24.2,144.74 c -0.5,4.63 -4.9,7.77 -9.4,6.71 l -176.3,-43.16 c -4,-0.92 -6.6,-4.75 -6.1,-8.82 l 21.6,-151.17 c 0.7,-4.96 5.8,-8.02 10.5,-6.31 l 178.8,49.83 c 3.4,1.23 5.5,4.61 5.1,8.18" style="fill:#ffffff;fill-opacity:1;fill-rule:nonzero;stroke:none" id="path248"/>
      <path d="m 21006.8,6743.72 c -2.3,0 -4.3,1.55 -4.9,3.85 -0.6,2.68 1,5.38 3.7,6.01 l 300,71.12 c 2.7,0.65 5.4,-1.02 6.1,-3.71 0.6,-2.69 -1.1,-5.38 -3.8,-6.02 l -300,-71.11 -1.1,-0.14" style="fill:#ffffff;fill-opacity:1;fill-rule:nonzero;stroke:none" id="path250"/>
      <path d="m 21011.6,6351.09 -24.2,144.74 c -0.5,4.63 -4.9,7.76 -9.5,6.71 l -176.2,-43.16 c -4,-0.92 -6.7,-4.76 -6.1,-8.82 l 21.6,-151.17 c 0.7,-4.97 5.8,-8.02 10.5,-6.31 l 178.8,49.83 c 3.4,1.23 5.5,4.61 5.1,8.18" style="fill:#ffffff;fill-opacity:1;fill-rule:nonzero;stroke:none" id="path252"/>
      <path d="m 21051,6443.68 c -2.3,0 -4.3,1.55 -4.9,3.85 -0.6,2.68 1,5.38 3.7,6.01 l 300,71.12 c 2.7,0.65 5.4,-1.02 6,-3.71 0.7,-2.69 -1,-5.38 -3.7,-6.02 l -300,-71.11 -1.1,-0.14" style="fill:#ffffff;fill-opacity:1;fill-rule:nonzero;stroke:none" id="path254"/>
      <path d="m 21054.3,6048.56 -24,138.59 c -0.5,4.43 -4.9,7.43 -9.4,6.43 l -175.1,-41.32 c -3.9,-0.89 -6.5,-4.56 -6,-8.46 l 21.5,-144.74 c 0.7,-4.75 5.7,-7.68 10.4,-6.05 l 177.6,47.72 c 3.3,1.17 5.4,4.41 5,7.83" style="fill:#ffffff;fill-opacity:1;fill-rule:nonzero;stroke:none" id="path256"/>
      <path d="m 21093.4,6137.22 c -2.2,0 -4.2,1.48 -4.8,3.68 -0.6,2.57 1,5.15 3.7,5.76 l 297.9,78.09 c 2.7,0.63 5.4,-0.98 6,-3.55 0.6,-2.57 -1,-5.16 -3.7,-5.76 l -297.9,-78.09 -1.2,-0.13" style="fill:#ffffff;fill-opacity:1;fill-rule:nonzero;stroke:none" id="path258"/>
      <path d="m 21100,5761.01 -24.2,144.74 c -0.5,4.63 -4.9,7.76 -9.5,6.71 l -176.2,-53.16 c -4,-0.93 -6.7,-4.76 -6.1,-8.82 l 21.6,-151.17 c 0.7,-4.97 5.8,-8.03 10.5,-6.32 l 178.8,59.84 c 3.4,1.22 5.5,4.61 5.1,8.18" style="fill:#ffffff;fill-opacity:1;fill-rule:nonzero;stroke:none" id="path260"/>
      <path d="m 21139.4,5843.6 c -2.3,0 -4.3,1.55 -4.9,3.85 -0.6,2.68 1,5.38 3.7,6.01 l 300,101.12 c 2.7,0.65 5.4,-1.03 6,-3.72 0.7,-2.68 -1,-5.38 -3.7,-6.01 l -300,-101.11 -1.1,-0.14" style="fill:#ffffff;fill-opacity:1;fill-rule:nonzero;stroke:none" id="path262"/>
      <path d="m 20067.4,6431.08 c 5.3,-27.06 8.7,-54.41 11,-81.89 27.4,30.84 57.8,64.67 89.9,100.26 -7.9,46.64 -19.9,92.23 -39.5,135.28 -26.2,57.53 -65.2,108.21 -97.1,162.79 -1.1,1.84 -2.1,3.74 -3.1,5.59 -20.1,-19.23 -45.2,-33.82 -73.6,-41.27 48.9,-89.28 92.8,-181.36 112.4,-280.76" style="fill:#f4676b;fill-opacity:1;fill-rule:nonzero;stroke:none" id="path264"/>
      <path d="m 18952.2,6042.44 c -25.5,72.81 -31.8,150.29 -30.2,226.96 1.9,97.02 11.7,192.93 16.3,289.42 -21.6,1.21 -42.1,5.98 -60.6,13.92 0.7,-4.8 1.4,-9.59 2,-14.41 8.1,-69.99 2.4,-140.99 -9.3,-210.47 -15.6,-92.04 -41.5,-186.15 -39.1,-277.94 50.3,-14.98 93.1,-28.05 125,-38.27 -1.4,3.58 -2.8,7.16 -4.1,10.79" style="fill:#f4676b;fill-opacity:1;fill-rule:nonzero;stroke:none" id="path266"/>
      <path d="m 19955,6711.84 c -5.6,-1.47 -11.3,-2.72 -17.2,-3.62 -5.9,-0.92 -11.8,-1.47 -17.7,-1.74 l 0.7,-6.96 c 16.4,-160.04 -76,-315.47 -222,-394.04 -40.2,-21.63 -84.5,-37.49 -131.7,-45.95 l -117.9,-21.13 c -41.8,-7.49 -82.8,-8.8 -122.2,-4.59 -167.8,17.92 -302.6,135.66 -327.3,300.17 -1.7,-3.59 -3.3,-7.24 -5.1,-10.79 2.3,4.45 3.5,10.43 4.1,17.27 -0.7,5.45 -1.3,10.95 -1.8,16.5 l -0.6,7.14 c -5.6,-1.36 -11.3,-2.5 -17.1,-3.4 -13.9,-2.14 -27.6,-2.62 -40.9,-1.88 -4.6,-96.49 -14.4,-192.4 -16.3,-289.42 -1.6,-76.67 4.7,-154.15 30.2,-226.96 1.3,-3.63 2.7,-7.21 4.1,-10.79 30.4,-9.77 51,-16.93 58.1,-20.54 62.3,-31.32 334.5,-18.81 334.5,-18.81 l -15.5,171.31 c 39.4,-4.05 80.5,-2.57 122.3,5.12 l 118,21.68 c 47.2,8.68 91.6,24.77 131.8,46.63 l 16.8,-172.39 c 1.2,-12.16 1,-24.32 -0.3,-36.3 72.6,43.11 194,119.17 219.1,160.21 9.1,14.88 62.5,76.68 137.3,160.63 -2.3,27.48 -5.7,54.83 -11,81.89 -19.6,99.4 -63.5,191.48 -112.4,280.76" style="fill:#151a2b;fill-opacity:1;fill-rule:nonzero;stroke:none" id="path268"/>
      <path d="m 20445.4,6752.97 c -90.3,-97.86 -190.1,-207.14 -277.1,-303.52 -32.1,-35.59 -62.5,-69.42 -89.9,-100.26 -74.8,-83.95 -128.2,-145.75 -137.3,-160.63 -25.1,-41.04 -146.5,-117.1 -219.1,-160.21 -9.3,-83.86 -77.5,-159.68 -167.3,-178.14 -104,-21.37 -196.7,42.28 -205.8,142.09 0,0 -272.2,-12.51 -334.5,18.81 -7.1,3.61 -27.7,10.77 -58.1,20.54 -31.9,10.22 -74.7,23.29 -125,38.27 -233.2,69.45 -625,179.21 -812.5,228.53 l 84.5,-477.8 c 223,-79.75 674.3,-240.61 798.5,-280.89 0.2,-2.97 0.3,-5.94 0.5,-8.91 l 5.6,-70.43 1442.4,454.37 c -1.1,2.46 -2.2,4.89 -3.3,7.3 47.9,58.75 111.6,137.82 178.7,221.47 l -80.3,609.41" style="fill:#f582c6;fill-opacity:1;fill-rule:nonzero;stroke:none" id="path270"/>
      <path d="m 19722.3,6064.65 -16.8,172.39 c -40.2,-21.86 -84.6,-37.95 -131.8,-46.63 l -118,-21.68 c -41.8,-7.69 -82.9,-9.17 -122.3,-5.12 l 15.5,-171.31 c 9.1,-99.81 101.8,-163.46 205.8,-142.09 89.8,18.46 158,94.28 167.3,178.14 1.3,11.98 1.5,24.14 0.3,36.3" style="fill:#fbbf20;fill-opacity:1;fill-rule:nonzero;stroke:none" id="path272"/>
      <path d="m 19994.8,6949.32 c 1.9,-4.82 -0.8,-9.86 -5.4,-12.19 -17.3,-8.63 -32.5,-21.05 -44.9,-35.81 32.3,-24.93 48.1,-67.84 39.4,-108.54 -2.5,-11.84 -21.4,-9.73 -18.9,2.18 7.3,34.19 -5.2,69.46 -31.8,90.83 -14.5,-22.72 -22.6,-49.12 -21.9,-75.27 0.1,-5.07 -3.2,-9.87 -8.7,-10.68 -4.9,-0.73 -10.5,2.8 -10.6,7.86 -1.5,59.89 35,118.74 90.5,146.41 4.7,2.33 10.5,-0.46 12.3,-4.79 z m -309,-146.56 c -5.4,-0.82 -11.7,2.77 -12.9,8.43 -2.5,11.97 -6.4,21.64 -17.4,28.32 -10.5,6.43 -23.3,7 -35,3.79 -13.6,-3.77 -25,-12.2 -34.3,-22.76 -4.7,-5.39 -9,-11.35 -12.9,-17.31 -4,-5.93 -7.7,-12.77 -13.1,-17.52 -4.1,-3.57 -10.3,-1.14 -10.6,4.38 -0.4,9.11 3.8,18.17 7.7,26.16 4.2,8.48 9.7,16.15 15.9,23.2 12.3,13.75 28.8,24.48 46.9,28.37 17.8,3.81 36.7,1.23 51.6,-9.64 13.3,-9.72 25.8,-26.48 24.3,-43.86 -0.5,-5.99 -4.1,-10.64 -10.2,-11.56 z m -119.5,-410.44 c -0.6,-1.89 -1.3,-3.76 -2,-5.58 -0.4,-1.18 -0.8,-2.33 -1.3,-3.48 -0.6,-1.75 -1.3,-3.46 -2,-5.14 -0.4,-1.01 -0.8,-2.02 -1.2,-3 -1,-2.5 -2.1,-4.94 -3.2,-7.27 l -0.8,-1.61 c -0.9,-1.85 -1.8,-3.65 -2.7,-5.37 l -1.2,-2.26 c -0.8,-1.49 -1.7,-2.92 -2.5,-4.29 l -1.2,-1.91 c -1.2,-1.87 -2.4,-3.66 -3.7,-5.28 l -0.4,-0.48 c -1.2,-1.45 -2.3,-2.77 -3.5,-3.99 l -1.2,-1.2 c -1,-0.93 -2,-1.77 -3,-2.53 l -1.2,-0.94 c -1.4,-0.96 -2.7,-1.81 -4.1,-2.43 -1.4,-0.61 -2.8,-1.21 -4.2,-1.81 l -1.4,-0.57 c -1,-0.43 -2,-0.86 -3.1,-1.27 l -1.4,-0.6 c -1.4,-0.54 -2.8,-1.07 -4.3,-1.58 l -1.5,-0.53 c -1,-0.34 -1.9,-0.66 -2.9,-0.98 l -2.1,-0.65 -2.6,-0.73 c -0.9,-0.27 -1.9,-0.53 -2.8,-0.77 -1.2,-0.27 -2.3,-0.54 -3.4,-0.78 l -2.6,-0.5 -2,-0.34 c -1,-0.15 -1.9,-0.29 -2.9,-0.41 l -1.6,-0.17 c -1.9,-0.2 -3.9,-0.33 -5.9,-0.37 l -1.2,-0.04 c -1.1,-0.01 -2.2,0.02 -3.4,0.07 l -1.3,0.06 c -3.7,0.22 -7.5,0.77 -11.4,1.68 l -0.8,0.18 c -1.3,0.33 -2.5,0.69 -3.8,1.1 l -0.6,0.21 c -4.1,1.33 -8.2,3.11 -12.3,5.41 l -0.6,0.33 c -5.7,3.22 -11.4,7.46 -17.2,12.86 l -0.5,0.46 c -4.2,4.02 -8.4,8.71 -12.7,14.11 l -0.4,0.54 c -1.4,1.79 -2.8,3.66 -4.2,5.61 l -0.3,0.48 c -4.2,5.89 -8.4,12.53 -12.5,19.96 l -0.9,1.62 c -1.4,2.41 -2.7,4.87 -4,7.45 v 0 c -17.6,34.26 -34.7,83.42 -50.5,153.3 0,0 4.2,-0.73 11.6,-1.65 2.3,-0.3 5,-0.61 8,-0.93 l 0.2,-0.03 c 2.8,-0.29 5.9,-0.58 9.2,-0.86 l 1.6,-0.14 c 3.3,-0.27 6.7,-0.53 10.4,-0.76 l 1.5,-0.09 c 3.6,-0.21 7.3,-0.4 11.2,-0.54 l 1.4,-0.06 c 4,-0.15 8.2,-0.24 12.5,-0.29 1,-0.01 1.9,-0.02 2.9,-0.02 4.3,-0.03 8.8,-0.01 13.3,0.08 l 2.6,0.08 c 4.4,0.11 8.8,0.28 13.4,0.52 l 1.8,0.09 c 4.8,0.28 9.8,0.67 14.8,1.12 1.1,0.1 2.2,0.2 3.4,0.31 5,0.49 10,1.07 15.1,1.76 1,0.13 1.9,0.29 2.9,0.43 5,0.71 10,1.51 15,2.45 l 1.5,0.25 c 5.2,1 10.5,2.16 15.8,3.41 1.1,0.27 2.2,0.54 3.3,0.81 5.2,1.3 10.4,2.73 15.5,4.31 1,0.3 2,0.63 3,0.94 5.1,1.65 10.3,3.42 15.4,5.39 l 0.7,0.27 c 5.2,2.03 10.4,4.29 15.4,6.68 1,0.46 2,0.91 2.9,1.38 4.9,2.41 9.8,4.98 14.5,7.76 l 2.6,1.59 c 4.9,2.97 9.7,6.08 14.4,9.49 l -0.2,-1.21 v -0.23 c -1.3,-11.59 -11.2,-98.6 -29.9,-168.36 -0.4,-1.59 -0.8,-3.19 -1.3,-4.77 -0.4,-1.63 -0.9,-3.26 -1.3,-4.87 -0.5,-1.69 -1,-3.35 -1.5,-5.01 -0.4,-1.44 -0.9,-2.89 -1.3,-4.31 -0.9,-2.84 -1.8,-5.64 -2.7,-8.38 -0.3,-1.08 -0.7,-2.12 -1.1,-3.18 z m -162.8,301.92 c 1.6,9.15 3.6,18.25 5.4,27.35 1.9,9.71 3,19.59 8,28.23 2.5,4.29 9.9,3.71 11,-1.44 1.7,-8.49 0.4,-16.39 -0.6,-24.97 l -2.7,-23.38 c -1.7,-13.57 -5.5,-28.01 -3.9,-41.77 1.2,-10.1 7.1,-16.8 17.5,-16.62 12.6,0.22 23.8,9.2 36.5,6.69 5.4,-1.06 6.9,-7.45 4.8,-11.71 -6.7,-13.35 -29.2,-18.08 -42.9,-17.38 -16.6,0.84 -30.4,10.85 -35.2,26.97 -4.7,15.56 -0.6,32.51 2.1,48.03 z m -96,44.53 c -6.6,2.72 -12.4,7.93 -18.1,12.24 -5.7,4.33 -11.7,8.56 -17.9,12.08 -12.2,6.93 -25.7,11.13 -39.9,10.18 -12.1,-0.81 -24,-5.57 -31.8,-15.1 -8.1,-9.91 -8.7,-20.32 -7.1,-32.44 0.8,-5.74 -4,-11.2 -9.4,-12.21 -6,-1.15 -11,2.06 -13.4,7.55 -7.2,15.91 -0.9,35.84 8.4,49.41 10.5,15.16 27.6,23.84 45.6,26.09 18.4,2.29 37.5,-2.4 53.6,-11.36 8.3,-4.58 16,-10.01 22.7,-16.66 6.3,-6.26 13.2,-13.44 15.9,-22.17 1.6,-5.29 -3.6,-9.65 -8.6,-7.61 z m 630.4,274.44 -0.6,0.01 c -10,0.54 -20.2,0.21 -30.6,-1.18 -3.7,-0.49 -7.3,-1.15 -10.9,-1.87 l -0.6,0.57 c -18.3,-23.47 -24.5,-55.26 -27.9,-85.38 -7.6,-68.33 2.7,-149.11 14,-216.94 -53,34.39 -84.3,91.7 -101.1,153.7 -35.7,58.79 -51.4,130.1 -39.9,197.6 -27,-20.16 -54.5,-40 -82.6,-59.17 l 0.4,-0.03 c 17,-2.35 38,-10.59 42.5,-29.07 1.7,-6.85 -5.2,-10.99 -11,-8.47 -14,6.02 -25.2,14.65 -41.1,15.33 -10.4,0.44 -20.5,-1.36 -30.5,-4.17 -27.5,-17.8 -55.6,-34.79 -84.1,-50.67 -3.5,-4.4 -6.8,-8.99 -9.6,-14.01 -3.7,-6.61 -11.4,-3.96 -13.5,1.46 -104.6,-55.38 -215.8,-94.82 -333.4,-102.48 -42.5,-2.76 -87.6,-0.23 -127.4,13.59 4.6,-27.75 4.8,-56.31 2.9,-84.46 -4.9,-70.38 -23.2,-139.75 -53.2,-203.59 24.7,-164.51 159.5,-282.25 327.3,-300.17 39.4,-4.21 80.4,-2.9 122.2,4.59 l 117.9,21.13 c 47.2,8.46 91.5,24.32 131.7,45.95 146,78.57 238.4,234 222,394.04 l -0.7,6.96 c 5.9,0.27 11.8,0.82 17.7,1.74 5.9,0.9 11.6,2.15 17.2,3.62 28.4,7.45 53.5,22.04 73.6,41.27 34.9,33.34 54.7,80.68 49.5,129.83 -6.5,62.48 -51.6,110.64 -110.3,125.64 -0.3,-2.89 -0.4,-5.87 -0.7,-8.74 -10.4,3.09 -19.8,8.71 -29.2,13.37" style="fill:#fbbf20;fill-opacity:1;fill-rule:nonzero;stroke:none" id="path274"/>
      <path d="m 18921.7,6742.08 c -25.2,-30.5 -32,-71.24 -16.9,-104.45 5.3,-11.56 -15.3,-19.93 -20.6,-8.42 -18.2,39.66 -9.2,89.49 21.7,125.51 -16.8,11.56 -36.4,19.85 -57.6,23.58 -5.8,1.01 -9.9,5.45 -8.7,11.1 1.1,5.08 7.2,9.79 12.9,8.77 67.8,-11.99 120,-61.74 130.4,-123.98 0.9,-5.25 -4.4,-10.64 -10,-11.45 -6.2,-0.92 -10.8,2.99 -11.7,8.27 -4.5,27.25 -18.9,52 -39.5,71.07 z m 57.5,-181.38 c 5.8,0.9 11.5,2.04 17.1,3.4 l 0.6,-7.14 c 0.5,-5.55 1.1,-11.05 1.8,-16.5 2.3,26.95 -5.7,67.88 -7,87.54 -2.3,35.91 -6.2,71.82 -13.8,107.05 -9.6,44.93 -29.8,157.88 -95.1,126.91 v 0.24 c -16,-8.57 -30.5,-19.18 -43.2,-31.32 -36.9,-35.19 -58.4,-83.38 -54.3,-133.65 4.7,-57.17 41.2,-102.56 92.4,-124.49 18.5,-7.94 39,-12.71 60.6,-13.92 13.3,-0.74 27,-0.26 40.9,1.88" style="fill:#fbbf20;fill-opacity:1;fill-rule:nonzero;stroke:none" id="path276"/>
      <path d="m 18882.8,6861.96 c 65.3,30.97 85.5,-81.98 95.1,-126.91 7.6,-35.23 11.5,-71.14 13.8,-107.05 1.3,-19.66 9.3,-60.59 7,-87.54 -0.6,-6.84 -1.8,-12.82 -4.1,-17.27 1.8,3.55 3.4,7.2 5.1,10.79 30,63.84 48.3,133.21 53.2,203.59 1.9,28.15 1.7,56.71 -2.9,84.46 -24.3,8.43 -46.6,21.06 -65.2,39.27 4,3.7 6.6,8.47 8.3,13.89 43.7,-14.23 90.2,-20.57 136.4,-21.69 56.6,-1.38 112.6,4.69 167.2,17.13 -23.1,18.53 -53,25.83 -82.2,27.05 -18,0.75 -36.8,0.62 -53.7,-6.11 -14.8,-5.88 -22.6,-17.72 -33.8,-28.02 -4.7,-4.3 -12.5,-2.64 -13.2,4.38 -1.9,18.93 15.3,33.64 30.6,41.44 19.8,10.16 42.3,11.71 64.2,10.22 36.9,-2.51 76.1,-12.32 102.1,-40.45 1.3,-1.42 1.9,-3.02 2.1,-4.6 186.7,47.04 355.9,168.38 474.3,322.74 -29.2,-88.29 -30.1,-166.82 -20.8,-259.35 2.6,-25.25 7.1,-50.9 13.9,-75.81 16.8,-62 48.1,-119.31 101.1,-153.7 -11.3,67.83 -21.6,148.61 -14,216.94 3.4,30.12 9.6,61.91 27.9,85.38 l 0.6,-0.57 c 3.6,0.72 7.2,1.38 10.9,1.87 10.4,1.39 20.6,1.72 30.6,1.18 v 0.32 l 0.6,-0.33 c 9.4,-4.66 18.8,-10.28 29.2,-13.37 0.3,2.87 0.4,5.85 0.7,8.74 5.8,67.98 -2.4,145.52 -24.5,209.29 -13.5,39.12 -33,77.6 -64.7,104.19 -31.7,26.58 -75.8,35.63 -113.8,19.21 -42.1,58.71 -106.1,99.91 -175.1,121.09 -69.1,21.18 -143.1,23.2 -214.6,13.26 -201.9,-28.04 -387.7,-155.25 -486.9,-333.4 -20.8,-37.47 -34.3,-81.33 -77.1,-84.77 7.2,-34.7 23.9,-66.52 46.5,-93.81 -11.3,-43.31 -17.4,-88 -18,-132.76 12.7,12.14 27.2,22.75 43.2,31.32 v -0.24" style="fill:#f4676b;fill-opacity:1;fill-rule:nonzero;stroke:none" id="path278"/>
      <path d="m 19177.4,6808.44 c 117.6,7.66 228.8,47.1 333.4,102.48 2.1,-5.42 9.8,-8.07 13.5,-1.46 2.8,5.02 6.1,9.61 9.6,14.01 28.5,15.88 56.6,32.87 84.1,50.67 10,2.81 20.1,4.61 30.5,4.17 15.9,-0.68 27.1,-9.31 41.1,-15.33 5.8,-2.52 12.7,1.62 11,8.47 -4.5,18.48 -25.5,26.72 -42.5,29.07 l -0.4,0.03 c 28.1,19.17 55.6,39.01 82.6,59.17 -11.5,-67.5 4.2,-138.81 39.9,-197.6 -6.8,24.91 -11.3,50.56 -13.9,75.81 -9.3,92.53 -8.4,171.06 20.8,259.35 -118.4,-154.36 -287.6,-275.7 -474.3,-322.74 -0.2,1.58 -0.8,3.18 -2.1,4.6 -26,28.13 -65.2,37.94 -102.1,40.45 -21.9,1.49 -44.4,-0.06 -64.2,-10.22 -15.3,-7.8 -32.5,-22.51 -30.6,-41.44 0.7,-7.02 8.5,-8.68 13.2,-4.38 11.2,10.3 19,22.14 33.8,28.02 16.9,6.73 35.7,6.86 53.7,6.11 29.2,-1.22 59.1,-8.52 82.2,-27.05 -54.6,-12.44 -110.6,-18.51 -167.2,-17.13 -46.2,1.12 -92.7,7.46 -136.4,21.69 -1.7,-5.42 -4.3,-10.19 -8.3,-13.89 18.6,-18.21 40.9,-30.84 65.2,-39.27 39.8,-13.82 84.9,-16.35 127.4,-13.59" style="fill:#151a2b;fill-opacity:1;fill-rule:nonzero;stroke:none" id="path280"/>
      <path d="m 19892,6807.7 c 0.1,-5.06 5.7,-8.59 10.6,-7.86 5.5,0.81 8.8,5.61 8.7,10.68 -0.7,26.15 7.4,52.55 21.9,75.27 26.6,-21.37 39.1,-56.64 31.8,-90.83 -2.5,-11.91 16.4,-14.02 18.9,-2.18 8.7,40.7 -7.1,83.61 -39.4,108.54 12.4,14.76 27.6,27.18 44.9,35.81 4.6,2.33 7.3,7.37 5.4,12.19 -1.8,4.33 -7.6,7.12 -12.3,4.79 -55.5,-27.67 -92,-86.52 -90.5,-146.41" style="fill:#151a2b;fill-opacity:1;fill-rule:nonzero;stroke:none" id="path282"/>
      <path d="m 18961.2,6671.01 c 0.9,-5.28 5.5,-9.19 11.7,-8.27 5.6,0.81 10.9,6.2 10,11.45 -10.4,62.24 -62.6,111.99 -130.4,123.98 -5.7,1.02 -11.8,-3.69 -12.9,-8.77 -1.2,-5.65 2.9,-10.09 8.7,-11.1 21.2,-3.73 40.8,-12.02 57.6,-23.58 -30.9,-36.02 -39.9,-85.85 -21.7,-125.51 5.3,-11.51 25.9,-3.14 20.6,8.42 -15.1,33.21 -8.3,73.95 16.9,104.45 20.6,-19.07 35,-43.82 39.5,-71.07" style="fill:#151a2b;fill-opacity:1;fill-rule:nonzero;stroke:none" id="path284"/>
      <path d="m 19512.3,6328.22 -2.1,-0.65 2.1,0.65" style="fill:#151a2b;fill-opacity:1;fill-rule:nonzero;stroke:none" id="path286"/>
      <path d="m 19367.4,6546.31 0.2,-0.03 -0.2,0.03" style="fill:#151a2b;fill-opacity:1;fill-rule:nonzero;stroke:none" id="path288"/>
      <path d="m 19431.6,6543.6 2.6,0.08 -2.6,-0.08" style="fill:#151a2b;fill-opacity:1;fill-rule:nonzero;stroke:none" id="path290"/>
      <path d="m 19402.3,6388.14 c -1.4,2.41 -2.7,4.87 -4,7.45 1.3,-2.58 2.6,-5.04 4,-7.45" style="fill:#151a2b;fill-opacity:1;fill-rule:nonzero;stroke:none" id="path292"/>
      <path d="m 19415.7,6366.56 c -4.2,5.89 -8.4,12.53 -12.5,19.96 4.1,-7.43 8.3,-14.07 12.5,-19.96" style="fill:#151a2b;fill-opacity:1;fill-rule:nonzero;stroke:none" id="path294"/>
      <path d="m 19388.8,6544.52 1.5,-0.09 -1.5,0.09" style="fill:#151a2b;fill-opacity:1;fill-rule:nonzero;stroke:none" id="path296"/>
      <path d="m 19401.5,6543.89 1.4,-0.06 -1.4,0.06" style="fill:#151a2b;fill-opacity:1;fill-rule:nonzero;stroke:none" id="path298"/>
      <path d="m 19376.8,6545.42 1.6,-0.14 -1.6,0.14" style="fill:#151a2b;fill-opacity:1;fill-rule:nonzero;stroke:none" id="path300"/>
      <path d="m 19468.3,6325.45 c -1.3,0.33 -2.5,0.69 -3.8,1.1 1.3,-0.41 2.5,-0.77 3.8,-1.1" style="fill:#151a2b;fill-opacity:1;fill-rule:nonzero;stroke:none" id="path302"/>
      <path d="m 19480.5,6323.59 c -3.7,0.22 -7.5,0.77 -11.4,1.68 3.9,-0.91 7.7,-1.46 11.4,-1.68" style="fill:#151a2b;fill-opacity:1;fill-rule:nonzero;stroke:none" id="path304"/>
      <path d="m 19485.2,6323.46 c -1.1,-0.01 -2.2,0.02 -3.4,0.07 1.2,-0.05 2.3,-0.08 3.4,-0.07" style="fill:#151a2b;fill-opacity:1;fill-rule:nonzero;stroke:none" id="path306"/>
      <path d="m 19420.2,6360.47 c -1.4,1.79 -2.8,3.66 -4.2,5.61 1.4,-1.95 2.8,-3.82 4.2,-5.61" style="fill:#151a2b;fill-opacity:1;fill-rule:nonzero;stroke:none" id="path308"/>
      <path d="m 19451,6332.5 c -5.7,3.23 -11.4,7.46 -17.2,12.86 5.8,-5.4 11.5,-9.64 17.2,-12.86" style="fill:#151a2b;fill-opacity:1;fill-rule:nonzero;stroke:none" id="path310"/>
      <path d="m 19463.9,6326.76 c -4.1,1.33 -8.2,3.11 -12.3,5.41 4.1,-2.3 8.2,-4.08 12.3,-5.41" style="fill:#151a2b;fill-opacity:1;fill-rule:nonzero;stroke:none" id="path312"/>
      <path d="m 19588.6,6581.56 2.6,1.59 -2.6,-1.59" style="fill:#151a2b;fill-opacity:1;fill-rule:nonzero;stroke:none" id="path314"/>
      <path d="m 19605.6,6592.64 -0.2,-1.21 0.2,1.21" style="fill:#151a2b;fill-opacity:1;fill-rule:nonzero;stroke:none" id="path316"/>
      <path d="m 19571.2,6572.42 c 1,0.46 2,0.91 2.9,1.38 -0.9,-0.47 -1.9,-0.92 -2.9,-1.38" style="fill:#151a2b;fill-opacity:1;fill-rule:nonzero;stroke:none" id="path318"/>
      <path d="m 19555.1,6565.47 0.7,0.27 -0.7,-0.27" style="fill:#151a2b;fill-opacity:1;fill-rule:nonzero;stroke:none" id="path320"/>
      <path d="m 19447.6,6544.2 1.8,0.09 -1.8,-0.09" style="fill:#151a2b;fill-opacity:1;fill-rule:nonzero;stroke:none" id="path322"/>
      <path d="m 19418.3,6543.52 c -1,0 -1.9,0.01 -2.9,0.02 1,-0.01 1.9,-0.02 2.9,-0.02" style="fill:#151a2b;fill-opacity:1;fill-rule:nonzero;stroke:none" id="path324"/>
      <path d="m 19574.2,6418.07 c -0.4,-1.63 -0.9,-3.26 -1.3,-4.87 0.4,1.61 0.9,3.24 1.3,4.87" style="fill:#151a2b;fill-opacity:1;fill-rule:nonzero;stroke:none" id="path326"/>
      <path d="m 19464.2,6545.41 c 1.1,0.1 2.2,0.2 3.4,0.31 -1.2,-0.11 -2.3,-0.21 -3.4,-0.31" style="fill:#151a2b;fill-opacity:1;fill-rule:nonzero;stroke:none" id="path328"/>
      <path d="m 19482.7,6547.48 c 1,0.13 1.9,0.29 2.9,0.43 -1,-0.14 -1.9,-0.3 -2.9,-0.43" style="fill:#151a2b;fill-opacity:1;fill-rule:nonzero;stroke:none" id="path330"/>
      <path d="m 19517.9,6554.02 c 1.1,0.27 2.2,0.54 3.3,0.81 -1.1,-0.27 -2.2,-0.54 -3.3,-0.81" style="fill:#151a2b;fill-opacity:1;fill-rule:nonzero;stroke:none" id="path332"/>
      <path d="m 19536.7,6559.14 c 1,0.3 2,0.63 3,0.94 -1,-0.31 -2,-0.64 -3,-0.94" style="fill:#151a2b;fill-opacity:1;fill-rule:nonzero;stroke:none" id="path334"/>
      <path d="m 19500.6,6550.36 1.5,0.25 -1.5,-0.25" style="fill:#151a2b;fill-opacity:1;fill-rule:nonzero;stroke:none" id="path336"/>
      <path d="m 19571.4,6408.19 c -0.4,-1.44 -0.9,-2.89 -1.3,-4.31 0.4,1.42 0.9,2.87 1.3,4.31" style="fill:#151a2b;fill-opacity:1;fill-rule:nonzero;stroke:none" id="path338"/>
      <path d="m 19549.4,6354.32 -1.2,-1.91 1.2,1.91" style="fill:#151a2b;fill-opacity:1;fill-rule:nonzero;stroke:none" id="path340"/>
      <path d="m 19561,6378.12 c -0.4,-1.01 -0.8,-2.02 -1.2,-3 0.4,0.98 0.8,1.99 1.2,3" style="fill:#151a2b;fill-opacity:1;fill-rule:nonzero;stroke:none" id="path342"/>
      <path d="m 19564.3,6386.74 c -0.4,-1.18 -0.8,-2.33 -1.3,-3.48 0.5,1.15 0.9,2.3 1.3,3.48" style="fill:#151a2b;fill-opacity:1;fill-rule:nonzero;stroke:none" id="path344"/>
      <path d="m 19553.1,6360.87 -1.2,-2.26 1.2,2.26" style="fill:#151a2b;fill-opacity:1;fill-rule:nonzero;stroke:none" id="path346"/>
      <path d="m 19556.6,6367.85 -0.8,-1.61 0.8,1.61" style="fill:#151a2b;fill-opacity:1;fill-rule:nonzero;stroke:none" id="path348"/>
      <path d="m 19492.3,6323.87 c -1.9,-0.2 -3.9,-0.33 -5.9,-0.37 2,0.04 4,0.17 5.9,0.37" style="fill:#151a2b;fill-opacity:1;fill-rule:nonzero;stroke:none" id="path350"/>
      <path d="m 19420.6,6359.93 c 4.3,-5.4 8.5,-10.09 12.7,-14.11 -4.2,4.03 -8.4,8.71 -12.7,14.11" style="fill:#151a2b;fill-opacity:1;fill-rule:nonzero;stroke:none" id="path352"/>
      <path d="m 19488.3,6400.02 c 11.8,17.06 28.2,32.09 48.4,36.52 13.8,3.02 29.2,-0.33 40.2,-8.75 -0.5,-1.66 -0.9,-3.3 -1.4,-4.95 18.7,69.76 28.6,156.77 29.9,168.36 -0.3,-2.67 -1,-8.95 -2.1,-17.82 -15.8,-23.76 -37.3,-43.81 -62.4,-57.44 -38.2,-20.77 -84.3,-26.58 -126.5,-15.96 -9.6,2.41 -19.1,5.7 -27.3,11.3 -12.6,8.69 -20.8,22.02 -27.7,35.96 -7.4,0.92 -11.6,1.65 -11.6,1.65 15.8,-69.88 32.9,-119.04 50.5,-153.3 10.7,10.68 22.8,19.92 37.1,24.18 19.7,5.84 44.6,-0.95 52.9,-19.75" style="fill:#151a2b;fill-opacity:1;fill-rule:nonzero;stroke:none" id="path354"/>
      <path d="m 19567.4,6395.5 c -0.3,-1.08 -0.7,-2.12 -1.1,-3.18 0.4,1.06 0.8,2.1 1.1,3.18" style="fill:#151a2b;fill-opacity:1;fill-rule:nonzero;stroke:none" id="path356"/>
      <path d="m 19526.9,6333.75 -1.4,-0.57 1.4,0.57" style="fill:#151a2b;fill-opacity:1;fill-rule:nonzero;stroke:none" id="path358"/>
      <path d="m 19501.4,6325.29 -2.6,-0.5 2.6,0.5" style="fill:#151a2b;fill-opacity:1;fill-rule:nonzero;stroke:none" id="path360"/>
      <path d="m 19496.8,6324.45 c -1,-0.15 -1.9,-0.29 -2.9,-0.41 1,0.12 1.9,0.26 2.9,0.41" style="fill:#151a2b;fill-opacity:1;fill-rule:nonzero;stroke:none" id="path362"/>
      <path d="m 19507.6,6326.84 c -0.9,-0.27 -1.9,-0.53 -2.8,-0.77 0.9,0.24 1.9,0.5 2.8,0.77" style="fill:#151a2b;fill-opacity:1;fill-rule:nonzero;stroke:none" id="path364"/>
      <path d="m 19544.5,6347.13 -0.4,-0.48 0.4,0.48" style="fill:#151a2b;fill-opacity:1;fill-rule:nonzero;stroke:none" id="path366"/>
      <path d="m 19516.7,6329.73 -1.5,-0.53 1.5,0.53" style="fill:#151a2b;fill-opacity:1;fill-rule:nonzero;stroke:none" id="path368"/>
      <path d="m 19540.6,6342.66 -1.2,-1.2 1.2,1.2" style="fill:#151a2b;fill-opacity:1;fill-rule:nonzero;stroke:none" id="path370"/>
      <path d="m 19536.4,6338.93 -1.2,-0.94 1.2,0.94" style="fill:#151a2b;fill-opacity:1;fill-rule:nonzero;stroke:none" id="path372"/>
      <path d="m 19522.4,6331.91 -1.4,-0.6 1.4,0.6" style="fill:#151a2b;fill-opacity:1;fill-rule:nonzero;stroke:none" id="path374"/>
      <path d="m 19387.1,6511.28 c 8.2,-5.6 17.7,-8.89 27.3,-11.3 42.2,-10.62 88.3,-4.81 126.5,15.96 25.1,13.63 46.6,33.68 62.4,57.44 1.1,8.87 1.8,15.15 2.1,17.82 v 0.23 l 0.2,1.21 c -4.7,-3.41 -9.5,-6.52 -14.4,-9.49 l -2.6,-1.59 c -4.7,-2.78 -9.6,-5.35 -14.5,-7.76 -0.9,-0.47 -1.9,-0.92 -2.9,-1.38 -5,-2.39 -10.2,-4.65 -15.4,-6.68 l -0.7,-0.27 c -5.1,-1.97 -10.3,-3.74 -15.4,-5.39 -1,-0.31 -2,-0.64 -3,-0.94 -5.1,-1.58 -10.3,-3.01 -15.5,-4.31 -1.1,-0.27 -2.2,-0.54 -3.3,-0.81 -5.3,-1.25 -10.6,-2.41 -15.8,-3.41 l -1.5,-0.25 c -5,-0.94 -10,-1.74 -15,-2.45 -1,-0.14 -1.9,-0.3 -2.9,-0.43 -5.1,-0.69 -10.1,-1.27 -15.1,-1.76 -1.2,-0.11 -2.3,-0.21 -3.4,-0.31 -5,-0.45 -10,-0.84 -14.8,-1.12 l -1.8,-0.09 c -4.6,-0.24 -9,-0.41 -13.4,-0.52 l -2.6,-0.08 c -4.5,-0.09 -9,-0.11 -13.3,-0.08 -1,0 -1.9,0.01 -2.9,0.02 -4.3,0.05 -8.5,0.14 -12.5,0.29 l -1.4,0.06 c -3.9,0.14 -7.6,0.33 -11.2,0.54 l -1.5,0.09 c -3.7,0.23 -7.1,0.49 -10.4,0.76 l -1.6,0.14 c -3.3,0.28 -6.4,0.57 -9.2,0.86 l -0.2,0.03 c -3,0.32 -5.7,0.63 -8,0.93 6.9,-13.94 15.1,-27.27 27.7,-35.96" style="fill:#ffffff;fill-opacity:1;fill-rule:nonzero;stroke:none" id="path376"/>
      <path d="m 19571.4,6408.19 c 0.5,1.66 1,3.32 1.5,5.01 0.4,1.61 0.9,3.24 1.3,4.87 0.5,1.58 0.9,3.18 1.3,4.77 0.5,1.65 0.9,3.29 1.4,4.95 -11,8.42 -26.4,11.77 -40.2,8.75 -20.2,-4.43 -36.6,-19.46 -48.4,-36.52 -8.3,18.8 -33.2,25.59 -52.9,19.75 -14.3,-4.26 -26.4,-13.5 -37.1,-24.18 v 0 c 1.3,-2.58 2.6,-5.04 4,-7.45 l 0.9,-1.62 c 4.1,-7.43 8.3,-14.07 12.5,-19.96 l 0.3,-0.48 c 1.4,-1.95 2.8,-3.82 4.2,-5.61 l 0.4,-0.54 c 4.3,-5.4 8.5,-10.08 12.7,-14.11 l 0.5,-0.46 c 5.8,-5.4 11.5,-9.63 17.2,-12.86 l 0.6,-0.33 c 4.1,-2.3 8.2,-4.08 12.3,-5.41 l 0.6,-0.21 c 1.3,-0.41 2.5,-0.77 3.8,-1.1 l 0.8,-0.18 c 3.9,-0.91 7.7,-1.46 11.4,-1.68 l 1.3,-0.06 c 1.2,-0.05 2.3,-0.08 3.4,-0.07 l 1.2,0.04 c 2,0.04 4,0.17 5.9,0.37 l 1.6,0.17 c 1,0.12 1.9,0.26 2.9,0.41 l 2,0.34 2.6,0.5 c 1.1,0.24 2.2,0.51 3.4,0.78 0.9,0.24 1.9,0.5 2.8,0.77 l 2.6,0.73 2.1,0.65 c 1,0.32 1.9,0.64 2.9,0.98 l 1.5,0.53 c 1.5,0.51 2.9,1.04 4.3,1.58 l 1.4,0.6 c 1.1,0.41 2.1,0.84 3.1,1.27 l 1.4,0.57 c 1.4,0.6 2.8,1.2 4.2,1.81 1.4,0.62 2.7,1.47 4.1,2.43 l 1.2,0.94 c 1,0.76 2,1.6 3,2.53 l 1.2,1.2 c 1.2,1.22 2.3,2.54 3.5,3.99 l 0.4,0.48 c 1.3,1.62 2.5,3.41 3.7,5.28 l 1.2,1.91 c 0.8,1.37 1.7,2.8 2.5,4.29 l 1.2,2.26 c 0.9,1.72 1.8,3.52 2.7,5.37 l 0.8,1.61 c 1.1,2.33 2.2,4.77 3.2,7.27 0.4,0.98 0.8,1.99 1.2,3 0.7,1.68 1.4,3.39 2,5.14 0.5,1.15 0.9,2.3 1.3,3.48 0.7,1.82 1.4,3.69 2,5.58 0.4,1.06 0.8,2.1 1.1,3.18 0.9,2.74 1.8,5.54 2.7,8.38 0.4,1.42 0.9,2.87 1.3,4.31" style="fill:#f4676b;fill-opacity:1;fill-rule:nonzero;stroke:none" id="path378"/>
      <path d="m 19436.6,6619.24 c 13.7,-0.7 36.2,4.03 42.9,17.38 2.1,4.26 0.6,10.65 -4.8,11.71 -12.7,2.51 -23.9,-6.47 -36.5,-6.69 -10.4,-0.18 -16.3,6.52 -17.5,16.62 -1.6,13.76 2.2,28.2 3.9,41.77 l 2.7,23.38 c 1,8.58 2.3,16.48 0.6,24.97 -1.1,5.15 -8.5,5.73 -11,1.44 -5,-8.64 -6.1,-18.52 -8,-28.23 -1.8,-9.1 -3.8,-18.2 -5.4,-27.35 -2.7,-15.52 -6.8,-32.47 -2.1,-48.03 4.8,-16.12 18.6,-26.13 35.2,-26.97" style="fill:#151a2b;fill-opacity:1;fill-rule:nonzero;stroke:none" id="path380"/>
      <path d="m 19671.7,6858.18 c -14.9,10.87 -33.8,13.45 -51.6,9.64 -18.1,-3.89 -34.6,-14.62 -46.9,-28.37 -6.2,-7.05 -11.7,-14.72 -15.9,-23.2 -3.9,-7.99 -8.1,-17.05 -7.7,-26.16 0.3,-5.52 6.5,-7.95 10.6,-4.38 5.4,4.75 9.1,11.59 13.1,17.52 3.9,5.96 8.2,11.92 12.9,17.31 9.3,10.56 20.7,18.99 34.3,22.76 11.7,3.21 24.5,2.64 35,-3.79 11,-6.68 14.9,-16.35 17.4,-28.32 1.2,-5.66 7.5,-9.25 12.9,-8.43 6.1,0.92 9.7,5.57 10.2,11.56 1.5,17.38 -11,34.14 -24.3,43.86" style="fill:#151a2b;fill-opacity:1;fill-rule:nonzero;stroke:none" id="path382"/>
      <path d="m 19300.2,6768.55 c -6.7,6.65 -14.4,12.08 -22.7,16.66 -16.1,8.96 -35.2,13.65 -53.6,11.36 -18,-2.25 -35.1,-10.93 -45.6,-26.09 -9.3,-13.57 -15.6,-33.5 -8.4,-49.41 2.4,-5.49 7.4,-8.7 13.4,-7.55 5.4,1.01 10.2,6.47 9.4,12.21 -1.6,12.12 -1,22.53 7.1,32.44 7.8,9.53 19.7,14.29 31.8,15.1 14.2,0.95 27.7,-3.25 39.9,-10.18 6.2,-3.52 12.2,-7.75 17.9,-12.08 5.7,-4.31 11.5,-9.52 18.1,-12.24 5,-2.04 10.2,2.32 8.6,7.61 -2.7,8.73 -9.6,15.91 -15.9,22.17" style="fill:#151a2b;fill-opacity:1;fill-rule:nonzero;stroke:none" id="path384"/>
      <g id="g386">
        <g id="g388" clip-path="url(#clipPath392)">
          <path d="m 28112.7,1649.6 c 0,0 -3154.7,737.7 -3396,418.7 -241.3,-319 -1154.2,-2479.999 -1154.2,-2479.999 l 4080.9,-540 596.6,2139.999 -127.3,461.3" style="fill:#151a2b;fill-opacity:1;fill-rule:nonzero;stroke:none" id="path394"/>
          <path d="m 26707.7,846.602 c 0,0 -5036.3,693.398 -5536.3,113.398 -170.2,-197.5 -560,-3040 -560,-3040 0,0 960,-300 1400,-80 l 1080,1240 c 0,0 4100,-1140 4980,-600 880,540 2400,340 2800,1120 400,780 40,1090.699 -140,2548.3 L 29462.7,2060 26707.7,846.602" style="fill:#151a2b;fill-opacity:1;fill-rule:nonzero;stroke:none" id="path396"/>
          <path d="m 29654.3,10163.1 c -48.3,78.8 -152.7,99.5 -245,103.6 -50.3,2.2 -118.8,4.8 -191.2,2.1 -28,-213.7 -74.8,-411.01 -125,-582.04 102.4,25.12 202.8,59.55 300.9,98.31 81.6,32.22 164.7,69.47 222.6,135.33 57.9,65.85 83.5,167.9 37.7,242.7" style="fill:#f4676b;fill-opacity:1;fill-rule:nonzero;stroke:none" id="path398"/>
          <path d="m 27715.8,8709.2 c -81.1,501.91 -170.3,390.27 -424.4,598.88 -159.4,130.87 -194.6,183.77 -365,300 -112.9,77.02 -358.5,471.02 -425.1,588.12 3.2,-22.6 6.5,-45.3 10.1,-68.1 0,0 -497.5,-120 -358.8,-420.02 138.8,-300 512.2,-220 512.2,-220 0,0 150.8,-1070.16 293.5,-1200 142.6,-129.83 513.1,40 513.1,40 l 120,-392.18 1365.5,138.3 c 0,0 -67.1,314.67 -83,863.59 -98,-65.62 -270.7,-497.31 -1158.1,-228.59" style="fill:#f4676b;fill-opacity:1;fill-rule:nonzero;stroke:none" id="path400"/>
          <path d="m 28811.4,12068.1 c 6.3,-8.8 12.4,-17.6 18.5,-26.4 -5.9,9.5 -12.1,18.3 -18.5,26.4" style="fill:#f4676b;fill-opacity:1;fill-rule:nonzero;stroke:none" id="path402"/>
          <path d="m 26466.1,10729.9 c -1.1,-167 8.9,-346.1 35.2,-533.7 -26.3,187.6 -36.2,366.7 -35.2,533.7 v 0" style="fill:#f4676b;fill-opacity:1;fill-rule:nonzero;stroke:none" id="path404"/>
          <path d="m 28829.9,12041.7 c -6.1,8.8 -12.2,17.6 -18.5,26.4 -269,377.8 -663.2,516.5 -1049.4,488.2 -367.5,40.9 -770.6,-141.6 -1020.5,-420.6 -81.3,-90.8 -149.7,-193.3 -238.2,-277.2 -186,-176.1 -459,-255.5 -710.5,-206.7 -32.1,-183.4 -29.4,-377.2 40.3,-549.9 69.7,-172.7 213.3,-321.2 393.7,-367.2 80.5,-20.5 160.7,-20.2 239.3,-4.8 v 0 c -1,-167 8.9,-346.1 35.2,-533.7 v 0 c 66.6,-117.1 312.2,-511.1 425.1,-588.12 170.4,-116.23 205.6,-169.13 365,-300 254.1,-208.61 343.3,-96.97 424.4,-598.88 887.4,-268.72 1060.1,162.97 1158.1,228.59 -1.1,35.78 -1.9,72.54 -2.5,110.29 -0.6,44.57 118,285.82 221.7,638.68 50.2,171.03 97,368.34 125,582.04 70.4,537.8 22,1180.1 -388.2,1772.9" style="fill:#151a2b;fill-opacity:1;fill-rule:nonzero;stroke:none" id="path406"/>
          <path d="m 23735.4,6938.23 c -36.6,57.52 -122.6,50.26 -187,27.98 -159.7,-55.17 -303.8,-171.49 -419.8,-301.97 -40.6,85 -101.3,157.32 -175,212.05 8.3,258.58 -34.3,1112.03 -123.3,1322.28 -17.6,41.76 -40.3,83.41 -76.9,110.12 -36.7,26.7 -90.5,34.41 -126.9,7.45 -54.4,-40.24 -41.3,-123.28 -26.3,-189.27 66.6,-291.19 59,-593.51 51.2,-892.09 -2.2,-82.1 -4.3,-164.2 -6.5,-246.3 -35.1,1.95 -70.8,0.54 -106.8,-4.28 -56.5,342.05 -193.6,977.53 -295.2,1143.95 -23.7,38.71 -52.2,76.57 -92.4,97.59 -40.2,21.02 -94.5,20.72 -126.6,-11.31 -47.9,-47.81 -22.7,-128.01 1.9,-191.07 108.7,-278.22 145.8,-578.36 182,-874.84 10.4,-85.36 20.8,-170.72 31.2,-256.08 -28.2,-11.29 -55.8,-22.94 -82.8,-34.77 -135.8,331.2 -345.1,786.09 -459.3,908.32 -30.9,33.15 -66.5,64.48 -110.1,76.96 -43.6,12.47 -96.7,1.23 -121.7,-36.62 -37.3,-56.5 3.6,-129.96 40.4,-186.75 162.5,-250.59 259.4,-537.08 354.7,-820.17 8.5,-25.25 16.9,-50.51 25.4,-75.76 -17.3,-9.59 -33.7,-18.83 -49.1,-27.65 -168.9,180.95 -374.6,392.26 -491.3,478.2 -80.2,59.06 -141.2,-5.28 -161,-50.14 -23.7,-53.55 -8.5,-117.09 35.8,-164.3 l 556.5,-516.65 374.9,-724.69 520,-598.42 560,140 v 458.42 l -21.2,322.71 c 2.1,2 4.2,4 6.1,6.11 42.5,46.2 60.2,109.09 82.4,167.77 75.6,199.9 214.6,369.38 364.2,521.97 54.2,55.23 114.1,136.01 72.5,201.25" style="fill:#f4676b;fill-opacity:1;fill-rule:nonzero;stroke:none" id="path408"/>
          <path d="m 22462,5361.07 209.4,-241.07 560,140 v 374.92 c -93.4,-1.3 -186.6,-11.61 -277.9,-32.33 -179.7,-40.79 -351.2,-122.86 -491.5,-241.52" style="fill:#151a2b;fill-opacity:1;fill-rule:nonzero;stroke:none" id="path410"/>
          <path d="m 30685.1,7529.55 c 0,0 -470.8,987.78 -725.9,1072.8 -255,85.01 -3995.7,-595.11 -4250.7,-913.92 C 25453.4,7369.62 24327,4160.3 24327,4160.3 l -999,1414.72 c 0,0 -637.6,-11.97 -807.6,-458.3 0,0 1402.7,-3000.32 1849.1,-3030.42 446.3,-30.1 1640.7,2291.73 1640.7,2291.73 0,0 481.4,-3087.03 706.2,-3458.928 0,0 2881.5,-818.301 4284.3,414.398 0,0 176.4,3826.76 -315.6,6196.05" style="fill:#fbbf20;fill-opacity:1;fill-rule:nonzero;stroke:none" id="path412"/>
          <path d="m 23985.7,3948.09 341.3,212.21 -425.6,602.75 c -131.9,-361.87 84.3,-814.96 84.3,-814.96" style="fill:#151a2b;fill-opacity:1;fill-rule:nonzero;stroke:none" id="path414"/>
          <path d="m 30685.1,7529.55 c 0,0 -148.7,284.4 -296.3,539.47 -740.3,-121.26 -4369.5,-744.92 -4477.4,-1326.86 -100.6,-542.95 575.4,-4544.56 796.3,-5807.461 2.9,-5.597 5.9,-10.898 8.7,-15.597 0,0 2881.5,-818.301 4284.3,414.398 0,0 176.4,3826.76 -315.6,6196.05" style="fill:#151a2b;fill-opacity:1;fill-rule:nonzero;stroke:none" id="path416"/>
          <path d="m 24886.6,5594 -74.3,29.65 725.6,1818.76 c 88.2,218.73 276.3,387.18 503.3,450.75 l 1447,385.25 20.6,-77.3 L 26062.3,7816 c -202.8,-56.8 -371.2,-207.64 -450.2,-403.38 L 24886.6,5594" style="fill:#151a2b;fill-opacity:1;fill-rule:nonzero;stroke:none" id="path418"/>
          <path d="m 24338.4,3990.08 -652.8,1009.22 67.2,43.45 562.7,-870 401.1,1190.71 75.9,-25.54 -454.1,-1347.84" style="fill:#151a2b;fill-opacity:1;fill-rule:nonzero;stroke:none" id="path420"/>
          <path d="m 31039.8,7842.13 c -1090.4,-130.78 -3064.8,-423.7 -4422.7,-949.76 -420,-162.72 -603,-603.92 -540.4,-1050 321.4,-2289.04 1151.8,-6155.569 988.1,-6902.37 -150,-683.9 -3672.6,161.402 -4914.7,383.102 -290,51.699 -566.8,-142.403 -617,-432.702 l -60.7,-350.8 c -49.1,-283.5 136.3,-554.6 418.4,-611.6 1233.1,-249.2 4356.1,-832.1 5227.3,-534.7 1093.3,373.4 4800,1013.4 5173.3,1786.7 300.9,623.301 -177.7,5923.96 -374.8,7957.18 -42.5,439.48 -438.4,757.53 -876.8,704.95" style="fill:#425554;fill-opacity:1;fill-rule:nonzero;stroke:none" id="path422"/>
          <path d="m 27224.5,6023.27 c 61.4,-197.11 46.9,-427.47 -75.1,-592 l 4817.8,1176.2 c -18.2,193.82 -35.2,371.65 -50.6,529.71 -16.4,169.62 -85.6,321.01 -189.4,440.12 L 26958.3,6427.66 c 122.7,-108.14 217.4,-248.09 266.2,-404.39" style="fill:#3d4b4a;fill-opacity:1;fill-rule:nonzero;stroke:none" id="path424"/>
          <path d="m 27126.9,5403.1 c -119.2,-138.51 -310.3,-209.69 -402.4,-367.54 -10.3,-17.63 -2.9,-89.42 17.9,-206.19 l 5280.9,1171.16 c -19.5,215.13 -38.4,418.63 -56.1,606.94 l -4817.8,-1176.2 c -7.2,-9.61 -14.6,-19.03 -22.5,-28.17" style="fill:#282d2c;fill-opacity:1;fill-rule:nonzero;stroke:none" id="path426"/>
          <path d="m 26490.6,1023.6 c -34.6,348.4 -306.6,626 -654.3,667.5 l -3783.7,452 c -93.2,11.2 -187.8,4.4 -278.5,-20.1 l -397.5,-106.9 c -73.9,-19.9 -125.2,-86.8 -125.2,-163.3 0,-86.7 65.8,-159.4 152.1,-168.1 L 25187.2,1303 c 360.9,-36.4 643.4,-327 669.6,-688.801 l 94.6,-1304.5 C 25966.1,-893.102 25784.9,-1055 25585,-1017.7 l -2843.3,531.001 c -163.1,30.398 -331.5,11.097 -483.4,-55.602 l -504.5,-221.297 4457.6,-756.402 508.5,232.5 -229.3,2311.1" style="fill:#282d2c;fill-opacity:1;fill-rule:nonzero;stroke:none" id="path428"/>
          <path d="m 26045.1,589.902 c -51,472.898 -429,844.098 -902.7,888.298 L 21252,1841.3 c 5.5,-81.6 69,-148.3 151.5,-156.6 L 25187.2,1303 c 360.9,-36.4 643.4,-327 669.6,-688.801 l 94.6,-1304.5 C 25966.1,-893.102 25784.9,-1055 25585,-1017.7 l -2843.3,531.001 c -163.1,30.398 -331.5,11.097 -483.4,-55.602 L 21753.8,-763.598 26152.6,-1510 26051.4,520 c -1.8,23.902 -3.9,47.199 -6.3,69.902" style="fill:#373e3e;fill-opacity:1;fill-rule:nonzero;stroke:none" id="path430"/>
          <path d="m 27784.8,-1406.7 c -35.3,2482.8 -1145,6297.05 -1060.3,6442.26 92.1,157.85 283.2,229.03 402.4,367.54 142.6,165.64 162.6,411.54 97.6,620.17 -98.4,315.44 -383.8,564.51 -709.7,619.25 -78.2,13.15 -157.9,14.83 -236.6,6.29 -175.2,-212.13 -243.3,-508.13 -201.5,-806.44 321.4,-2289.04 1151.8,-6155.569 988.1,-6902.37 -150,-683.9 -3672.6,161.402 -4914.7,383.102 -290,51.699 -566.8,-142.403 -617,-432.702 l -60.7,-350.8 c -49.1,-283.5 136.3,-554.6 418.4,-611.6 1233.1,-249.2 4356.1,-832.1 5227.3,-534.7 116.4,39.8 262.5,82.6 431,128.2 152.7,240.8 242.6,583.2 235.7,1071.8" style="fill:#6e918b;fill-opacity:1;fill-rule:nonzero;stroke:none" id="path432"/>
          <path d="m 27432.1,8569.71 c -19,31.79 -62.8,40.88 -98.6,31.31 -35.7,-9.57 -65.6,-33.45 -95.2,-55.7 -100.7,-75.71 -214.2,-127.2 -330.2,-176.24 15.3,-33.05 34.2,-69.51 49.5,-83.43 142.6,-129.83 513.1,40 513.1,40 l 38.1,-124.54 c 87,-15.11 -13.5,217.89 -41.8,314.45 -4.1,13.96 -27.5,41.65 -34.9,54.15" style="fill:#151a2b;fill-opacity:1;fill-rule:nonzero;stroke:none" id="path434"/>
        </g>
      </g>
      <path d="m 18099.9,8634.09 -173.2,1766.41 c -6.3,56.4 -60.4,94.7 -115.7,81.9 l -2273.2,-526.76 c -48.8,-11.3 -80.8,-58.08 -73.8,-107.67 l 263.5,-1844.82 c 8.7,-60.61 70.9,-97.94 128.4,-77.11 l 2182,608.21 c 41.2,14.94 66.9,56.22 62,99.84" style="fill:#ffffff;fill-opacity:1;fill-rule:nonzero;stroke:none" id="path436"/>
      <g id="g438">
        <g id="g440" clip-path="url(#clipPath444)">
          <path d="m 17228,9102.65 -632.4,-122.93 c -120.4,-23.41 -212.5,-134.47 -203.4,-248.17 l 69.4,-865.3 1058.5,305.91 -83.3,781.32 c -11,102.89 -103.6,169.63 -208.8,149.17" style="fill:#151a2b;fill-opacity:1;fill-rule:nonzero;stroke:none" id="path446"/>
          <path d="m 16867.2,9150.57 c -29.7,-5.48 -59,-6.53 -87.1,-3.65 l 11.1,-122 c 6.4,-71.09 72.5,-116.41 146.5,-101.19 73.1,15.02 126.2,83.41 119.4,152.72 l -12,122.77 c -28.6,-15.57 -60.2,-27.03 -93.8,-33.21 l -84.1,-15.44" style="fill:#f582c6;fill-opacity:1;fill-rule:nonzero;stroke:none" id="path448"/>
          <path d="m 16862.6,9200.19 c -29.7,-5.34 -59,-6.27 -87,-3.27 l 4.5,-50 c 28.1,-2.88 57.4,-1.83 87.1,3.65 l 84.1,15.44 c 33.6,6.18 65.2,17.64 93.8,33.21 l -4.7,48.74 c -28.6,-15.41 -60.2,-26.7 -93.8,-32.73 l -84,-15.04" style="fill:#151a2b;fill-opacity:1;fill-rule:nonzero;stroke:none" id="path450"/>
          <path d="m 17098.3,9782.4 c -33.2,18.99 -53.1,56.88 -57.2,94.07 -104.3,-132.93 -282.2,-218.54 -464,-224.07 l 0.1,-0.75 c 14.6,-6.19 -21.6,-39.99 -11,-51.01 51.5,-2.26 152.4,30.09 200.7,46.11 109,36.15 199.1,110.08 269.9,192.11 22,-39.89 49.8,-76.46 92.2,-90.46 -2.4,9.15 -6.6,17.41 -14,23.66 -5,4.2 -11,7.07 -16.7,10.34" style="fill:#151a2b;fill-opacity:1;fill-rule:nonzero;stroke:none" id="path452"/>
          <path d="m 17247.3,9697.82 c -12.3,-6.15 -23.1,-15 -31.9,-25.51 22.9,-17.76 34.2,-48.32 28,-77.3 -1.8,-8.44 -15.2,-6.93 -13.4,1.55 5.2,24.35 -3.8,49.47 -22.7,64.69 -10.3,-16.19 -16.1,-34.98 -15.6,-53.61 0.1,-3.61 -2.3,-7.02 -6.2,-7.6 -3.5,-0.52 -7.4,1.99 -7.5,5.59 -1.1,42.66 24.9,84.57 64.4,104.27 3.3,1.66 7.5,-0.32 8.8,-3.41 1.4,-3.43 -0.6,-7.02 -3.9,-8.67 z m -723.9,-195.42 c -4.4,-0.66 -7.7,2.13 -8.3,5.89 -3.2,19.4 -13.5,37.03 -28.2,50.61 -17.9,-21.72 -22.8,-50.73 -12,-74.39 3.8,-8.23 -10.9,-14.19 -14.7,-5.99 -12.9,28.24 -6.5,63.73 15.5,89.38 -12,8.24 -25.9,14.14 -41.1,16.8 -4,0.72 -7,3.88 -6.1,7.9 0.7,3.62 5.1,6.97 9.2,6.25 48.2,-8.54 85.4,-43.97 92.8,-88.3 0.6,-3.74 -3.1,-7.57 -7.1,-8.15 z m 665,248.76 c -2.6,-0.35 -5.2,-0.81 -7.8,-1.33 1.3,-27.26 4.1,-57.38 7.9,-83.45 -8.1,7.59 -22.2,1.15 -33.5,3.39 -16.2,3.22 -21.3,22.58 -22,38.66 -0.6,13.19 -0.7,27.43 -4,39.97 -42.4,14 -70.2,50.57 -92.2,90.46 -70.8,-82.03 -160.9,-155.96 -269.9,-192.11 -48.3,-16.02 -149.2,-48.37 -200.7,-46.11 -10.6,11.02 25.6,44.82 11,51.01 5.7,-37.88 10.5,-75.96 14.5,-114.25 -17.2,1.08 -35.1,-1.96 -51.5,-8.77 -8.8,45.29 -21.1,85.54 -41.5,126.47 l -1.1,0.1 c -1.3,0.14 -3.8,0.67 -7.1,1.62 -61.3,-16.22 -105.5,-71.12 -100.7,-129.86 5.3,-64.54 67.5,-108.1 138.1,-97.23 4.1,0.63 8.2,1.45 12.1,2.42 l 0.5,-5.09 c 10.7,-125.68 110.1,-216.79 235.1,-230.14 28,-3 57.3,-2.07 87,3.27 l 84,15.04 c 33.6,6.03 65.2,17.32 93.8,32.73 104,55.96 169.7,166.65 158.1,280.63 l -0.5,4.95 c 4.2,0.2 8.4,0.6 12.6,1.25 61.7,9.49 106.2,65.23 99.9,124.43 -6.2,59.02 -60.5,100.15 -122.1,91.94" style="fill:#f582c6;fill-opacity:1;fill-rule:nonzero;stroke:none" id="path454"/>
          <path d="m 17242.4,9709.9 c -39.5,-19.7 -65.5,-61.61 -64.4,-104.27 0.1,-3.6 4,-6.11 7.5,-5.59 3.9,0.58 6.3,3.99 6.2,7.6 -0.5,18.63 5.3,37.42 15.6,53.61 18.9,-15.22 27.9,-40.34 22.7,-64.69 -1.8,-8.48 11.6,-9.99 13.4,-1.55 6.2,28.98 -5.1,59.54 -28,77.3 8.8,10.51 19.6,19.36 31.9,25.51 3.3,1.65 5.3,5.24 3.9,8.67 -1.3,3.09 -5.5,5.07 -8.8,3.41" style="fill:#151a2b;fill-opacity:1;fill-rule:nonzero;stroke:none" id="path456"/>
          <path d="m 16437.7,9598.85 c -4.1,0.72 -8.5,-2.63 -9.2,-6.25 -0.9,-4.02 2.1,-7.18 6.1,-7.9 15.2,-2.66 29.1,-8.56 41.1,-16.8 -22,-25.65 -28.4,-61.14 -15.5,-89.38 3.8,-8.2 18.5,-2.24 14.7,5.99 -10.8,23.66 -5.9,52.67 12,74.39 14.7,-13.58 25,-31.21 28.2,-50.61 0.6,-3.76 3.9,-6.55 8.3,-5.89 4,0.58 7.7,4.41 7.1,8.15 -7.4,44.33 -44.6,79.76 -92.8,88.3" style="fill:#151a2b;fill-opacity:1;fill-rule:nonzero;stroke:none" id="path458"/>
          <path d="m 16498.7,9655.1 c 20.4,-40.93 32.7,-81.18 41.5,-126.47 16.4,6.81 34.3,9.85 51.5,8.77 -4,38.29 -8.8,76.37 -14.5,114.25 l -0.1,0.75 c 181.8,5.53 359.7,91.14 464,224.07 4.1,-37.19 24,-75.08 57.2,-94.07 5.7,-3.27 11.7,-6.14 16.7,-10.34 7.4,-6.25 11.6,-14.51 14,-23.66 3.3,-12.54 3.4,-26.78 4,-39.97 0.7,-16.08 5.8,-35.44 22,-38.66 11.3,-2.24 25.4,4.2 33.5,-3.39 -3.8,26.07 -6.6,56.19 -7.9,83.45 -0.1,3.7 -0.3,7.35 -0.4,10.93 26.3,38.82 42.3,86.73 46.5,131.81 1.4,14.17 1.5,28.81 -3.8,41.92 -6.2,15.28 -19.1,26.98 -32.1,37.52 -14.6,11.77 -30.3,22.92 -48.4,29.09 -17.4,5.9 -37.6,6.8 -54.6,-0.9 0.5,3.7 -8.7,15.5 -11.6,20.7 -37,66.7 -118.7,98.5 -195,125.7 -35.7,12.7 -73,25.6 -111.8,23 -48.9,-3.3 -92.5,-30.7 -130.4,-60.8 -53.3,-42.1 -101.6,-92.1 -131.5,-151.27 -17.2,-34.06 -28.2,-70.99 -51.7,-102.45 -16.2,-21.6 -40.8,-40.54 -67.7,-48.05 -22.1,-6.16 -34.3,-27.73 -25.9,-46.23 30.8,-67.12 103.7,-97.02 128.3,-103.98 3.3,-0.95 5.8,-1.48 7.1,-1.62 l 1.1,-0.1" style="fill:#fbbf20;fill-opacity:1;fill-rule:nonzero;stroke:none" id="path460"/>
          <path d="m 16764.5,9561.24 c 2.1,-23.04 -12.6,-44.19 -33,-47.23 -20.4,-3.04 -38.7,13.31 -40.7,36.52 -2.1,23.17 12.8,44.29 33.2,47.18 20.3,2.87 38.4,-13.45 40.5,-36.47" style="fill:#151a2b;fill-opacity:1;fill-rule:nonzero;stroke:none" id="path462"/>
          <path d="m 17041.4,9601.5 c 2.2,-22.45 -11.7,-43 -31,-45.88 -19.4,-2.9 -36.9,13.09 -39.1,35.69 -2.2,22.58 11.8,43.09 31.2,45.83 19.3,2.74 36.7,-13.21 38.9,-35.64" style="fill:#151a2b;fill-opacity:1;fill-rule:nonzero;stroke:none" id="path464"/>
          <path d="m 16989.8,9718.86 c -24.2,-0.71 -44.9,-15.47 -56,-35.94 -3,-5.47 5.9,-10.61 9.5,-5.25 11,16.34 29.6,27.59 49.9,26.54 8.6,-0.44 17,-3.15 24,-7.63 5.5,-3.49 9,-7.39 15.6,-8.69 3.2,-0.63 5.8,2.49 5.7,5.27 -1,18.87 -32.4,26.18 -48.7,25.7" style="fill:#151a2b;fill-opacity:1;fill-rule:nonzero;stroke:none" id="path466"/>
          <path d="m 16918.4,9444.71 c -13.3,1.25 -23.3,-9.43 -36.3,-10.42 -21.2,-1.62 -18.5,30.26 -19.5,44.6 -2.4,32.12 -2.3,64.72 -0.9,97 0.3,5.48 -9.2,5.12 -10.1,-0.18 -7.4,-43.11 -9.1,-87.64 -2.8,-130.34 2.1,-13.91 8.5,-26.28 24.5,-27.88 15.3,-1.53 35.4,7.08 47.9,15.7 5,3.45 2.9,10.99 -2.8,11.52" style="fill:#151a2b;fill-opacity:1;fill-rule:nonzero;stroke:none" id="path468"/>
          <path d="m 17015,9432.5 c -16.2,-11.99 -28.7,-27.83 -45.6,-39.54 -17,-11.84 -36.1,-21.11 -56,-27.1 -42.3,-12.69 -87.9,-10.57 -127.8,3.25 -7.1,2.45 -11.5,-7.38 -5.1,-10.5 41.5,-20.22 90.2,-23.62 137,-9.64 21.7,6.48 42.1,16.37 60.8,29.04 17.6,12.01 38.1,27.87 46.6,47.28 2.6,6.04 -4.4,11.33 -9.9,7.21" style="fill:#151a2b;fill-opacity:1;fill-rule:nonzero;stroke:none" id="path470"/>
        </g>
      </g>
      <path d="m 16347.4,5710.98 -173.2,1766.38 c -6.3,56.42 -60.4,94.7 -115.7,81.88 l -2273.2,-526.71 c -48.8,-11.31 -80.9,-58.08 -73.8,-107.68 L 13975,5080.04 c 8.7,-60.61 70.9,-97.95 128.4,-77.11 l 2182,608.2 c 41.2,14.94 66.9,56.23 62,99.85" style="fill:#fbbf20;fill-opacity:1;fill-rule:nonzero;stroke:none" id="path472"/>
      <g id="g474">
        <g id="g476" clip-path="url(#clipPath480)">
          <path d="m 15475.5,6179.54 -632.4,-122.93 c -120.4,-23.42 -212.6,-134.47 -203.4,-248.18 l 69.3,-865.3 1058.6,305.91 -83.3,781.32 c -11,102.9 -103.6,169.64 -208.8,149.18" style="fill:#4e4f51;fill-opacity:1;fill-rule:nonzero;stroke:none" id="path482"/>
          <path d="m 15114.7,6227.45 c -29.8,-5.47 -59,-6.53 -87.1,-3.64 l 11.1,-122 c 6.4,-71.1 72.4,-116.42 146.5,-101.19 73.1,15.01 126.1,83.41 119.4,152.71 l -12,122.77 c -28.6,-15.57 -60.2,-27.02 -93.8,-33.2 l -84.1,-15.45" style="fill:#c46158;fill-opacity:1;fill-rule:nonzero;stroke:none" id="path484"/>
          <path d="m 15110.1,6277.07 c -29.7,-5.33 -59,-6.26 -87,-3.27 l 4.5,-49.99 c 28.1,-2.89 57.3,-1.83 87.1,3.64 l 84.1,15.45 c 33.6,6.18 65.2,17.63 93.8,33.2 l -4.7,48.74 c -28.6,-15.4 -60.2,-26.69 -93.8,-32.72 l -84,-15.05" style="fill:#151a2b;fill-opacity:1;fill-rule:nonzero;stroke:none" id="path486"/>
          <path d="m 15494.8,6774.7 c -12.3,-6.15 -23.1,-14.99 -31.9,-25.5 22.9,-17.76 34.2,-48.32 28,-77.3 -1.8,-8.44 -15.3,-6.93 -13.4,1.55 5.2,24.34 -3.8,49.47 -22.7,64.68 -10.3,-16.18 -16.1,-34.98 -15.6,-53.6 0.1,-3.61 -2.3,-7.03 -6.2,-7.61 -3.5,-0.51 -7.4,2 -7.5,5.59 -1.1,42.67 24.9,84.57 64.4,104.28 3.3,1.66 7.5,-0.33 8.8,-3.41 1.4,-3.43 -0.6,-7.03 -3.9,-8.68 z m -723.9,-195.42 c -4.4,-0.65 -7.7,2.13 -8.3,5.89 -3.3,19.41 -13.5,37.03 -28.2,50.61 -17.9,-21.72 -22.8,-50.73 -12,-74.38 3.8,-8.24 -10.9,-14.2 -14.7,-5.99 -12.9,28.24 -6.6,63.73 15.5,89.38 -12,8.23 -25.9,14.14 -41.1,16.79 -4,0.72 -7,3.89 -6.1,7.91 0.7,3.62 5.1,6.97 9.2,6.24 48.2,-8.53 85.4,-43.97 92.8,-88.29 0.6,-3.74 -3.2,-7.58 -7.1,-8.16 z m 665,248.77 c -2.6,-0.35 -5.2,-0.82 -7.8,-1.34 -14.7,10.41 -26.7,187.03 -62.5,189.96 -135.3,11.09 -479.3,-24.65 -615.6,-73.34 -35.2,-12.57 11.6,-197.93 -3.8,-211.35 l -1.1,0.1 c -1.3,0.14 -3.8,0.68 -7.1,1.63 -61.3,-16.22 -105.5,-71.12 -100.7,-129.87 5.2,-64.53 67.5,-108.1 138.1,-97.22 4.1,0.63 8.2,1.45 12.1,2.41 l 0.5,-5.08 c 10.7,-125.69 110.1,-216.8 235.1,-230.15 28,-2.99 57.3,-2.06 87,3.27 l 84,15.05 c 33.6,6.03 65.2,17.32 93.8,32.72 104,55.96 169.7,166.66 158.1,280.63 l -0.5,4.96 c 4.1,0.19 8.4,0.59 12.6,1.24 61.7,9.5 106.2,65.24 99.9,124.44 -6.2,59.02 -60.6,100.15 -122.1,91.94" style="fill:#c46158;fill-opacity:1;fill-rule:nonzero;stroke:none" id="path488"/>
          <path d="m 15433.9,6839.94 c -6,-55.15 -4.8,-111.09 3.7,-165.91 -7.5,3.92 -15.6,-6.36 -24,-5.3 -8.5,1.07 -11,11.82 -11.8,20.28 -2.5,29.67 -7.2,59.15 -13.9,88.17 -4.2,18.35 -9.3,36.91 -23.2,49.69 4.2,38.81 -0.9,75.04 -11.5,112.6 -189.3,33.74 -385.8,-2.18 -560.3,-82.87 6.4,-41.16 12.9,-85.83 28.6,-124.41 -20.1,-26.64 -13.4,-64.1 -5.7,-96.59 5,-20.71 9.9,-41.42 14.8,-62.13 -15.4,-1.23 -30.7,-2.45 -46,-3.68 -13.5,53.47 -27,106.95 -40.4,160.42 -32.7,129.89 -88.4,254.41 -109,386.74 11.1,-2.31 20.8,3.74 31.9,1.43 4.1,-0.84 8.4,-1.64 12.2,0.09 5.8,2.67 7.4,9.83 10.3,15.46 6.2,12.06 20.1,18.62 33.7,19.51 13.5,0.88 26.8,-3.02 39.7,-7.27 6.2,20.5 23.6,37.23 44.3,42.67 20.7,5.45 44,-0.59 59.5,-15.38 11.6,31.86 64.6,45.3 92.2,25.57 4.2,-2.95 9.2,-6.68 13.8,-4.47 2.9,1.4 4.2,4.66 5.5,7.59 9.2,20.47 28.1,36.38 49.8,42.03 21.7,5.66 45.9,0.96 63.9,-12.42 8.9,8.98 30.6,15.4 42,20.88 11.4,5.48 25.6,6.64 36.2,-0.28 10.6,-6.92 19.4,-21.73 31.5,-17.85 7.1,2.28 10.3,10.18 15.3,15.74 8.7,9.83 23.5,12.41 36.3,9.41 12.8,-3 24,-10.7 34.3,-18.85 8.6,12.29 24,19.45 38.9,18.09 15,-1.37 28.8,-11.2 35.1,-24.84 11.1,14.14 31,25.82 46.6,16.93 4.7,-2.66 8,-7.15 11.2,-11.51 7.1,-9.72 14.2,-19.45 21.2,-29.17 11.7,-137.3 8.2,-233.38 -6.7,-370.37" style="fill:#1c1b1a;fill-opacity:1;fill-rule:nonzero;stroke:none" id="path490"/>
          <path d="m 15489.9,6786.79 c -39.5,-19.71 -65.5,-61.61 -64.4,-104.28 0.1,-3.59 4,-6.1 7.5,-5.59 3.9,0.58 6.3,4 6.2,7.61 -0.5,18.62 5.3,37.42 15.6,53.6 18.9,-15.21 27.9,-40.34 22.7,-64.68 -1.9,-8.48 11.6,-9.99 13.4,-1.55 6.2,28.98 -5.1,59.54 -28,77.3 8.8,10.51 19.6,19.35 31.9,25.5 3.3,1.65 5.3,5.25 3.9,8.68 -1.3,3.08 -5.5,5.07 -8.8,3.41" style="fill:#151a2b;fill-opacity:1;fill-rule:nonzero;stroke:none" id="path492"/>
          <path d="m 14685.2,6675.73 c -4.1,0.73 -8.5,-2.62 -9.2,-6.24 -0.9,-4.02 2.1,-7.19 6.1,-7.91 15.2,-2.65 29.1,-8.56 41.1,-16.79 -22.1,-25.65 -28.4,-61.14 -15.5,-89.38 3.8,-8.21 18.5,-2.25 14.7,5.99 -10.8,23.65 -5.9,52.66 12,74.38 14.7,-13.58 24.9,-31.2 28.2,-50.61 0.6,-3.76 3.9,-6.54 8.3,-5.89 3.9,0.58 7.7,4.42 7.1,8.16 -7.4,44.32 -44.6,79.76 -92.8,88.29" style="fill:#151a2b;fill-opacity:1;fill-rule:nonzero;stroke:none" id="path494"/>
          <path d="m 15012,6638.12 c 2.1,-23.04 -12.7,-44.19 -33,-47.23 -20.4,-3.04 -38.7,13.32 -40.7,36.52 -2.1,23.18 12.8,44.29 33.2,47.18 20.3,2.88 38.4,-13.44 40.5,-36.47" style="fill:#151a2b;fill-opacity:1;fill-rule:nonzero;stroke:none" id="path496"/>
          <path d="m 15288.9,6678.38 c 2.2,-22.45 -11.7,-43 -31,-45.88 -19.4,-2.9 -37,13.09 -39.1,35.69 -2.2,22.58 11.8,43.09 31.2,45.84 19.3,2.73 36.7,-13.22 38.9,-35.65" style="fill:#151a2b;fill-opacity:1;fill-rule:nonzero;stroke:none" id="path498"/>
          <path d="m 15237.3,6795.75 c -24.2,-0.71 -44.9,-15.47 -56,-35.94 -3,-5.47 5.9,-10.61 9.5,-5.25 11,16.33 29.6,27.59 49.9,26.54 8.6,-0.45 17,-3.16 24,-7.63 5.5,-3.49 9,-7.4 15.6,-8.69 3.2,-0.63 5.8,2.48 5.7,5.27 -1,18.86 -32.4,26.18 -48.7,25.7" style="fill:#151a2b;fill-opacity:1;fill-rule:nonzero;stroke:none" id="path500"/>
          <path d="m 14963.5,6771.72 c -24.2,-0.71 -45,-15.47 -56.1,-35.94 -2.9,-5.48 6,-10.61 9.6,-5.26 11,16.34 29.6,27.6 49.8,26.55 8.7,-0.45 17.1,-3.15 24.1,-7.64 5.5,-3.49 8.9,-7.39 15.6,-8.69 3.2,-0.63 5.8,2.49 5.7,5.28 -1,18.86 -32.5,26.17 -48.7,25.7" style="fill:#151a2b;fill-opacity:1;fill-rule:nonzero;stroke:none" id="path502"/>
          <path d="m 15165.9,6521.59 c -13.3,1.26 -23.3,-9.42 -36.3,-10.41 -21.2,-1.62 -18.5,30.26 -19.5,44.6 -2.4,32.12 -2.3,64.72 -0.9,97 0.3,5.48 -9.2,5.11 -10.1,-0.19 -7.4,-43.11 -9.1,-87.63 -2.8,-130.33 2.1,-13.91 8.5,-26.29 24.5,-27.89 15.3,-1.52 35.4,7.09 47.9,15.7 5,3.45 2.9,10.99 -2.8,11.52" style="fill:#151a2b;fill-opacity:1;fill-rule:nonzero;stroke:none" id="path504"/>
          <path d="m 15262.4,6509.38 c -16.1,-11.98 -28.6,-27.83 -45.5,-39.53 -17,-11.85 -36.1,-21.11 -56,-27.1 -42.3,-12.7 -87.9,-10.57 -127.8,3.25 -7.1,2.45 -11.5,-7.39 -5.1,-10.5 41.5,-20.22 90.2,-23.63 137,-9.64 21.6,6.47 42.1,16.36 60.8,29.04 17.6,12.01 38.1,27.86 46.6,47.28 2.6,6.03 -4.4,11.32 -10,7.2" style="fill:#151a2b;fill-opacity:1;fill-rule:nonzero;stroke:none" id="path506"/>
        </g>
      </g>
      <path d="m 29740,13000 c -248.1,0 -450,-201.9 -450,-450 0,-248.1 201.9,-450 450,-450 248.1,0 450,201.9 450,450 0,248.1 -201.9,450 -450,450 z m 0,-940 c -270.2,0 -490,219.8 -490,490 0,270.2 219.8,490 490,490 270.2,0 490,-219.8 490,-490 0,-270.2 -219.8,-490 -490,-490" style="fill:#f3f6fc;fill-opacity:1;fill-rule:nonzero;stroke:none" id="path508"/>
      <path d="m 18537.2,12320 c -140.6,0 -255,-114.4 -255,-255 0,-140.6 114.4,-255 255,-255 140.6,0 255,114.4 255,255 0,140.6 -114.4,255 -255,255 z m 0,-550 c -162.7,0 -295,132.3 -295,295 0,162.7 132.3,295 295,295 162.7,0 295,-132.3 295,-295 0,-162.7 -132.3,-295 -295,-295" style="fill:#f3f6fc;fill-opacity:1;fill-rule:nonzero;stroke:none" id="path510"/>
      <path d="m 11776,1719.8 c -338.6,0 -614,-275.4 -614,-614 0,-338.499 275.4,-613.999 614,-613.999 338.6,0 614,275.5 614,613.999 0,338.6 -275.4,614 -614,614 z m 0,-1267.999 c -360.6,0 -654,293.398 -654,653.999 0,360.7 293.4,654 654,654 360.6,0 654,-293.3 654,-654 0,-360.601 -293.4,-653.999 -654,-653.999" style="fill:#f3f6fc;fill-opacity:1;fill-rule:nonzero;stroke:none" id="path512"/>
      <path d="m 14551.9,2222 -249.3,200 -249.4,-200 -249.3,200 -249.3,-200 -249.3,200 -249.3,-200 -271.2,217.6 43.8,54.6 227.4,-182.5 249.3,200 249.3,-200 249.3,200 249.3,-200 249.4,200 249.3,-200 249.3,200 249.3,-200 249.3,200 249.4,-200 249.3,200 249.4,-200 249.4,200 271.3,-217.5 -43.8,-54.6 -227.5,182.4 -249.4,-200 -249.4,200 -249.3,-200 -249.4,200 -249.3,-200 -249.3,200 -249.3,-200" style="fill:#ffffff;fill-opacity:1;fill-rule:nonzero;stroke:none" id="path514"/>
      <path d="m 14551.9,2654.5 -249.3,200 -249.4,-200 -249.3,200 -249.3,-200 -249.3,200 -249.3,-200 -271.2,217.6 43.8,54.6 227.4,-182.4 249.3,200 249.3,-200 249.3,200 249.3,-200 249.4,200 249.3,-200 249.3,200 249.3,-200 249.3,199.9 249.4,-200 249.3,200 249.4,-200 249.4,200 271.3,-217.5 -43.8,-54.6 -227.5,182.4 -249.4,-200 -249.4,200 -249.3,-200 -249.4,200 -249.3,-200 -249.3,200 -249.3,-200" style="fill:#ffffff;fill-opacity:1;fill-rule:nonzero;stroke:none" id="path516"/>
      <path d="m 14551.9,1684.4 -249.3,200 -249.4,-200 -249.3,200 -249.3,-200 -249.3,200 -249.3,-200 -271.2,217.5 43.8,54.7 227.4,-182.5 249.3,200 249.3,-200 249.3,200 249.3,-200 249.4,200 249.3,-200 249.3,200 249.3,-200 249.3,200 249.4,-200 249.3,200 249.4,-200 249.4,200 271.3,-217.5 -43.8,-54.7 -227.5,182.5 -249.4,-200 -249.4,200 -249.3,-200 -249.4,200 -249.3,-200 -249.3,200 -249.3,-200" style="fill:#ffffff;fill-opacity:1;fill-rule:nonzero;stroke:none" id="path518"/>
      <path d="m 22615,12562 -149.3,119.8 -149.3,-119.8 -149.3,119.8 -149.2,-119.8 -149.3,119.8 -149.3,-119.8 -162.4,130.3 26.2,32.7 136.2,-109.2 149.3,119.7 149.3,-119.7 149.2,119.7 149.3,-119.7 149.3,119.7 149.3,-119.7 149.3,119.7 149.3,-119.7 149.3,119.7 149.3,-119.7 149.3,119.7 149.3,-119.7 149.4,119.7 162.4,-130.2 -26.2,-32.7 -136.2,109.2 -149.4,-119.8 -149.3,119.8 -149.3,-119.8 -149.3,119.8 -149.3,-119.8 -149.3,119.8 -149.3,-119.8" style="fill:#ffffff;fill-opacity:1;fill-rule:nonzero;stroke:none" id="path520"/>
      <path d="m 22615,12821 -149.3,119.8 -149.3,-119.8 -149.3,119.8 -149.2,-119.8 -149.3,119.8 -149.3,-119.8 -162.4,130.3 26.2,32.7 136.2,-109.2 149.3,119.7 149.3,-119.7 149.2,119.7 149.3,-119.7 149.3,119.7 149.3,-119.7 149.3,119.7 149.3,-119.7 149.3,119.7 149.3,-119.7 149.3,119.7 149.3,-119.7 149.4,119.7 162.4,-130.2 -26.2,-32.7 -136.2,109.2 -149.4,-119.8 -149.3,119.8 -149.3,-119.8 -149.3,119.8 -149.3,-119.8 -149.3,119.8 -149.3,-119.8" style="fill:#ffffff;fill-opacity:1;fill-rule:nonzero;stroke:none" id="path522"/>
      <path d="m 22615,12240.1 -149.3,119.8 -149.3,-119.8 -149.3,119.8 -149.2,-119.8 -149.3,119.8 -149.3,-119.8 -162.4,130.3 26.2,32.7 136.2,-109.2 149.3,119.7 149.3,-119.7 149.2,119.7 149.3,-119.7 149.3,119.7 149.3,-119.7 149.3,119.7 149.3,-119.7 149.3,119.7 149.3,-119.7 149.3,119.7 149.3,-119.7 149.4,119.7 162.4,-130.3 -26.2,-32.7 -136.2,109.3 -149.4,-119.8 -149.3,119.8 -149.3,-119.8 -149.3,119.8 -149.3,-119.8 -149.3,119.8 -149.3,-119.8" style="fill:#ffffff;fill-opacity:1;fill-rule:nonzero;stroke:none" id="path524"/>
    </g>
  </g>
</svg>